<?xml version="1.0" encoding="UTF-8"?>
<svg version="1.1" xmlns="http://www.w3.org/2000/svg" width="3163" height="1683">
<path d="M0 0 C1.14933437 3.44800312 0.9071399 5.58184298 0.578125 9.19140625 C-0.05100235 17.10724892 -0.24327026 24.9985767 -0.25 32.9375 C-0.25067474 33.66655548 -0.25134949 34.39561096 -0.25204468 35.14675903 C-0.11606706 129.08441844 41.65008133 215.93904482 143.55908203 376.96728516 C145.16562681 379.2336511 146.75406354 381.51202727 148.33984375 383.79296875 C154.7109091 392.95591899 161.17441102 402.03316751 167.82202148 410.99780273 C171.73870632 416.27966637 175.60273622 421.59592861 179.4375 426.9375 C184.64607877 434.1813504 189.96979105 441.33275691 195.33691406 448.4597168 C199.65592684 454.19746859 203.93535611 459.96253959 208.1875 465.75 C212.42919851 471.52232395 216.6930149 477.27621521 221 483 C228.32294288 492.73506295 235.53036472 502.55492065 242.74267578 512.37207031 C249.30476067 521.30302525 255.89707582 530.20832699 262.5625 539.0625 C273.1253952 553.10826636 283.34144102 567.39689167 293.43896484 581.77978516 C295.05540996 584.07880797 296.67785406 586.37351814 298.30078125 588.66796875 C306.80142346 600.71428794 315.01759049 612.936004 323.15722656 625.22851562 C324.79863961 627.69715909 326.45308873 630.15599321 328.1171875 632.609375 C341.56939808 652.47416685 353.8441684 673.03088255 365.38134766 694.05957031 C366.91035503 696.83715174 368.45792773 699.60341434 370.01171875 702.3671875 C378.69622724 717.9071265 386.49173942 733.86585446 394 750 C394.28337219 750.60845764 394.56674438 751.21691528 394.85870361 751.84381104 C413.51477613 792.04367721 427.76448521 834.68241902 437 878 C437.23847656 879.1142334 437.47695313 880.2284668 437.72265625 881.37646484 C443.32788151 908.10938561 446.51537511 935.68275353 447 963 C447.02046387 963.77988281 447.04092773 964.55976562 447.06201172 965.36328125 C448.64942344 1028.64984458 433.28516339 1089.75586126 405 1146 C404.57412598 1146.84997559 404.14825195 1147.69995117 403.70947266 1148.57568359 C392.29096631 1171.06114692 377.70704164 1193.09578457 361 1212 C360.18402344 1212.93070313 359.36804688 1213.86140625 358.52734375 1214.8203125 C357.05510965 1216.47184097 355.57142823 1218.1132666 354.07421875 1219.7421875 C352.725524 1221.21025825 351.39365267 1222.69402688 350.08203125 1224.1953125 C339.07116595 1236.76090346 327.22677872 1248.7756189 314 1259 C311.92776716 1260.67587509 309.87101953 1262.36970729 307.8125 1264.0625 C306.20833333 1265.375 304.60416667 1266.6875 303 1268 C302.34 1267.67 301.68 1267.34 301 1267 C301.38671875 1266.59910156 301.7734375 1266.19820312 302.171875 1265.78515625 C302.69265625 1265.21667969 303.2134375 1264.64820313 303.75 1264.0625 C304.26046875 1263.51722656 304.7709375 1262.97195313 305.296875 1262.41015625 C311.44512867 1253.70953121 312.98073909 1243.23222217 315.0625 1233 C315.2370874 1232.14743622 315.4116748 1231.29487244 315.59155273 1230.41647339 C316.77205606 1224.61922329 317.90351569 1218.81369353 319 1213 C319.21640137 1211.85934082 319.43280273 1210.71868164 319.65576172 1209.54345703 C325.04003721 1179.49411932 324.32631344 1145.02481857 319 1115 C318.82839355 1114.01741211 318.65678711 1113.03482422 318.47998047 1112.02246094 C313.00972078 1081.68427362 303.52757206 1052.13820442 291 1024 C290.5776709 1023.04319336 290.1553418 1022.08638672 289.72021484 1021.10058594 C266.47207347 968.68205751 234.71527242 920.72967025 199 876 C198.31679688 875.13375 197.63359375 874.2675 196.9296875 873.375 C192.74862252 868.09365477 188.4307955 862.9416041 184.06420898 857.81396484 C181.33894596 854.60660877 178.67157792 851.36588555 176.0625 848.0625 C168.7700573 838.87222897 161.0082574 830.07580618 153.1171875 821.3984375 C150.97350626 818.96998679 148.95437237 816.47190943 146.9375 813.9375 C140.99586311 806.59109782 134.40336462 799.85086375 127.89794922 793.00683594 C125.2994958 790.25930737 122.73738796 787.48005666 120.1875 784.6875 C119.31222656 783.73101563 118.43695313 782.77453125 117.53515625 781.7890625 C115.88933918 779.97841013 114.25085453 778.16105548 112.62109375 776.3359375 C105.53314569 768.46043966 98.06575972 761.00063527 90.52392578 753.56079102 C89.65493652 752.70026123 88.78594727 751.83973145 87.890625 750.953125 C87.11750977 750.19161133 86.34439453 749.43009766 85.54785156 748.64550781 C83.54287145 746.56367909 81.65020248 744.45862428 79.76635742 742.27075195 C75.66331997 737.54552552 71.27670202 733.13287179 66.84765625 728.71484375 C65.98869247 727.85492325 65.1297287 726.99500275 64.24473572 726.10902405 C62.43822985 724.30184139 60.63047538 722.49590608 58.8215332 720.69116211 C56.0706319 717.94561607 53.32510779 715.19477454 50.58007812 712.44335938 C48.81542468 710.6793668 47.05046103 708.9156845 45.28515625 707.15234375 C44.47345474 706.33861801 43.66175323 705.52489227 42.82545471 704.68650818 C39.37612369 701.25115915 35.92087366 697.88151854 32.21875 694.71875 C26.25350039 689.57872544 20.77398884 683.91766454 15.21484375 678.34765625 C13.98765878 677.12114646 12.76032553 675.89478502 11.53285217 674.66856384 C8.97201619 672.10919472 6.41297829 669.54804507 3.85522461 666.9855957 C0.59522046 663.71989492 -2.66925365 660.45870525 -5.93509769 657.19884586 C-8.46696285 654.67061373 -10.99641744 652.13998061 -13.52517509 649.60864067 C-14.72718599 648.40596808 -15.92992519 647.20402291 -17.13344002 646.0028553 C-22.81703195 640.3279204 -28.47912018 634.67205242 -33.67857361 628.54161072 C-35.50641191 626.40920657 -37.48512967 624.45472495 -39.5 622.5 C-42.78103368 619.25743741 -45.85459996 615.92952978 -48.85546875 612.4296875 C-51.83448868 609.05455017 -54.9196321 605.78251704 -58 602.5 C-62.76519429 597.41283312 -67.48048458 592.30815569 -72 587 C-73.18916016 585.62908203 -73.18916016 585.62908203 -74.40234375 584.23046875 C-81.98291537 575.44083691 -89.04286714 566.28767535 -96 557 C-96.49032715 556.34708984 -96.9806543 555.69417969 -97.48583984 555.02148438 C-132.76696839 507.91582485 -157.95827664 456.15173278 -168 398 C-168.28593018 396.36925537 -168.28593018 396.36925537 -168.57763672 394.70556641 C-173.7195173 363.66311674 -173.44296048 328.97023084 -168 298 C-167.65613573 295.86850801 -167.31239088 293.73699676 -166.96875 291.60546875 C-160.72568652 254.39735447 -149.33831919 218.43452658 -134 184 C-133.50242188 182.88141602 -133.00484375 181.76283203 -132.4921875 180.61035156 C-125.75894464 165.58079162 -118.57254427 150.90876233 -110.453125 136.57958984 C-109.02866544 134.05088694 -107.63650009 131.50670587 -106.25 128.95703125 C-98.44227576 114.75581723 -89.42585034 101.45422052 -80.19140625 88.15771484 C-78.28444872 85.40987742 -76.38995577 82.65406773 -74.5 79.89453125 C-67.07666208 69.12746373 -59.18261594 58.79522579 -49.71876526 49.71897888 C-47.96585263 47.96584839 -46.35735998 46.14152598 -44.74584961 44.25805664 C-41.25187801 40.23999791 -37.58662902 36.44144454 -33.81640625 32.68359375 C-33.15720688 32.02343765 -32.49800751 31.36328156 -31.8188324 30.68312073 C-30.43603165 29.29964494 -29.05198924 27.91740917 -27.66674805 26.53637695 C-25.56769657 24.44268331 -23.4740406 22.34370126 -21.38085938 20.24414062 C-20.02636214 18.89030429 -18.67155469 17.53677825 -17.31640625 16.18359375 C-16.39415001 15.25830116 -16.39415001 15.25830116 -15.45326233 14.3143158 C-11.6600338 10.54110059 -7.745263 6.96221487 -3.68809509 3.47401428 C-2.4159384 2.36318993 -1.19421803 1.19421803 0 0 Z " fill="#000000" transform="translate(252,80)"/>
<path d="M0 0 C1.19327517 3.57982552 1.05058428 6.75636984 0.95703125 10.47265625 C0.93086057 12.01454213 0.90626755 13.5564554 0.88305664 15.09838867 C0.87049835 15.90811127 0.85794006 16.71783386 0.84500122 17.55209351 C0.31118464 58.78428655 11.36063609 96.9372454 29 134 C29.31372559 134.66064453 29.62745117 135.32128906 29.95068359 136.00195312 C32.20904139 140.71610744 34.58157896 145.3661882 37 150 C37.50160645 150.96212402 38.00321289 151.92424805 38.52001953 152.91552734 C46.08860421 167.36062338 54.00441353 181.39907476 63 195 C63.74818702 196.13581264 64.49622448 197.27172381 65.24414062 198.40771484 C78.8665388 219.0785206 92.81881169 239.46315377 107.56640625 259.3515625 C110.91597071 263.87371074 114.21348941 268.43190992 117.5 273 C126.85423947 285.98176934 136.33368229 298.85853356 146.0625 311.5625 C152.71137879 320.24608247 159.15492043 329.05823047 165.52246094 337.94921875 C167.36258822 340.50326191 169.23008749 343.03626727 171.1015625 345.56738281 C217.46276052 408.29733715 259.75072099 477.27876972 274 555 C274.20044922 556.06637695 274.40089844 557.13275391 274.60742188 558.23144531 C286.16415057 621.79345312 273.55397452 687.03073298 236.80664062 740.265625 C232.48085941 746.43227208 227.96486889 752.32848619 223 758 C222.25105469 758.85851563 221.50210937 759.71703125 220.73046875 760.6015625 C213.62069061 768.619745 206.15177737 776.04749008 198 783 C197.32066406 783.58394531 196.64132812 784.16789062 195.94140625 784.76953125 C194.296734 786.18255952 192.64873067 787.59170922 191 789 C190.34 788.67 189.68 788.34 189 788 C189.60585938 786.89785156 190.21171875 785.79570313 190.8359375 784.66015625 C193.28668645 779.74678248 194.47966458 774.78365447 195.625 769.4375 C195.82867187 768.54998047 196.03234375 767.66246094 196.2421875 766.74804688 C199.30854408 752.90030193 200.38200868 739.37698952 200.3125 725.25 C200.31034485 724.45775024 200.3081897 723.66550049 200.30596924 722.84924316 C200.25420001 710.97224398 199.71856533 699.60115044 197 688 C196.79600586 687.07896484 196.59201172 686.15792969 196.38183594 685.20898438 C183.95543055 629.53434713 152.45264612 581.75749826 117 538 C116.30390625 537.14019531 115.6078125 536.28039063 114.890625 535.39453125 C109.4979529 528.76842883 104.00707121 522.23003838 98.46777344 515.7265625 C96.94552924 513.93592528 95.42966056 512.14001437 93.9140625 510.34375 C89.05512839 504.60504971 84.18183939 499.01215107 78.77734375 493.7734375 C77.00132569 492.00132277 75.37565197 490.16023853 73.75 488.25 C70.21941667 484.13638456 66.40553976 480.34496288 62.52636719 476.56347656 C59.82758561 473.91150508 57.27658946 471.19368669 54.81604004 468.3182373 C51.01342077 463.95472119 46.98688942 459.85982145 42.88085938 455.78320312 C42.10104202 455.00484604 41.32122467 454.22648895 40.51777649 453.42454529 C38.83729463 451.74784614 37.15565932 450.07230239 35.47297668 448.39781189 C32.80489707 445.74258422 30.14003111 443.08416803 27.47595215 440.42492676 C21.82010699 434.78046754 16.16037222 429.13991828 10.5 423.5 C3.93690439 416.96062035 -2.62448638 410.41954516 -9.1816864 403.87425232 C-11.79798651 401.26440069 -14.41729699 398.65759673 -17.03674316 396.05090332 C-18.6515976 394.43968386 -20.26631043 392.82832246 -21.88085938 391.21679688 C-22.60210495 390.50071762 -23.32335052 389.78463837 -24.06645203 389.04685974 C-28.0449342 385.06878938 -31.84392161 380.9913283 -35.51157379 376.72434235 C-37.53101886 374.38481444 -39.64247233 372.13514174 -41.75 369.875 C-47.52936102 363.52031797 -52.82453246 356.85229173 -58 350 C-58.5146582 349.32050293 -59.02931641 348.64100586 -59.55957031 347.94091797 C-95.5800011 300.07079586 -112.9606057 246.16539926 -104.97265625 186.3515625 C-103.56896644 176.75073065 -101.50767512 167.36918728 -99 158 C-98.75797852 157.0925 -98.51595703 156.185 -98.26660156 155.25 C-83.97505167 102.86604363 -55.30986227 54.00936061 -16.875 15.75 C-15.59302734 14.46222656 -15.59302734 14.46222656 -14.28515625 13.1484375 C-9.67937627 8.54973245 -5.01037901 4.15494845 0 0 Z " fill="#000000" transform="translate(239,811)"/>
<path d="M0 0 C33.391875 -0.061875 66.78375 -0.12375 101.1875 -0.1875 C111.69875732 -0.21481201 122.21001465 -0.24212402 133.03979492 -0.27026367 C145.9576416 -0.28381348 145.9576416 -0.28381348 152.02095032 -0.28633118 C156.22090999 -0.28910597 160.42075384 -0.30026716 164.62068176 -0.31672668 C170.00317228 -0.33753628 175.38549804 -0.34343117 180.76802504 -0.33921683 C182.72763929 -0.34009609 184.68726022 -0.34590592 186.6468395 -0.35764539 C221.48916461 -0.55642572 259.39052802 6.60749879 285.46386719 31.4609375 C305.53216367 51.56750791 312.22575337 78.24866826 312.25 105.9375 C312.25067474 106.62908203 312.25134949 107.32066406 312.25204468 108.03320312 C312.21421046 132.45077366 307.06984214 154.93577734 291 174 C290.36707031 174.79019531 289.73414062 175.58039063 289.08203125 176.39453125 C282.72015168 183.97388121 275.10000099 189.4401557 267 195 C266.43200684 195.39864258 265.86401367 195.79728516 265.27880859 196.20800781 C261.23544502 199 261.23544502 199 259 199 C259 199.66 259 200.32 259 201 C259.68835937 201.10441406 260.37671875 201.20882812 261.0859375 201.31640625 C274.59511227 204.48544859 285.84169447 213.768823 293.375 225.125 C301.6330857 239.45819382 304.09436273 255.74422587 305.03125 272.01953125 C305.11396445 273.37996432 305.19693772 274.74038167 305.28015137 276.1007843 C306.29797266 293.06460341 306.98496723 310.04695937 307.67724609 327.02661133 C307.82236153 330.57694309 307.97478536 334.12690248 308.13157654 337.67673683 C308.21559565 339.62603573 308.291609 341.57567466 308.36730957 343.52531433 C309.12426229 362.8856714 309.12426229 362.8856714 319.5 378.375 C322.33459781 380.81158921 324.6022454 382.3011227 328 384 C328 387.3 328 390.6 328 394 C306.22 394 284.44 394 262 394 C258.61748901 383.85246702 258.61748901 383.85246702 257.90234375 379.1640625 C257.74169434 378.11613525 257.58104492 377.06820801 257.41552734 375.98852539 C257.25777832 374.87856201 257.1000293 373.76859863 256.9375 372.625 C256.68154053 370.83147095 256.68154053 370.83147095 256.42041016 369.00170898 C254.10538392 352.13967818 253.12717263 335.29457453 252.54296875 318.296875 C252.50286682 317.15645248 252.46276489 316.01602997 252.42144775 314.84104919 C252.2199137 309.06960642 252.03298074 303.29836964 251.87255859 297.52563477 C251.43737612 275.29840674 251.43737612 275.29840674 244.3125 254.5 C243.96364746 253.83693848 243.61479492 253.17387695 243.25537109 252.49072266 C236.16601735 239.56307759 224.97223413 233.73333742 211.39453125 229.078125 C200.4494202 226.05698282 188.90514663 225.70092299 177.62915039 225.68115234 C176.24561972 225.67170824 174.86209457 225.66142454 173.47857571 225.6503849 C169.82470469 225.62348636 166.17087289 225.60784747 162.51692963 225.59480286 C159.06881125 225.58071113 155.6207961 225.55611559 152.17272949 225.5324707 C142.13604595 225.46960488 132.0992643 225.42327953 122.0625 225.375 C99.601875 225.25125 77.14125 225.1275 54 225 C54 280.77 54 336.54 54 394 C36.18 394 18.36 394 0 394 C0 263.98 0 133.96 0 0 Z M54 46 C54 89.89 54 133.78 54 179 C75.759375 179.04125 97.51875 179.0825 119.9375 179.125 C126.77847412 179.14320801 133.61944824 179.16141602 140.66772461 179.18017578 C146.86255546 179.18686945 146.86255546 179.18686945 153.05738831 179.19088745 C155.79171799 179.19393523 158.52585511 179.20015022 161.26014709 179.21115112 C204.32608354 179.76911719 204.32608354 179.76911719 240.890625 159.328125 C253.21056683 145.73055958 257.61513281 128.14314422 257.1875 109.96875 C256.1080154 92.87691053 253.1386936 76.00574315 241 63 C240.34 63 239.68 63 239 63 C239 62.34 239 61.68 239 61 C224.30939941 47.83483423 203.67714788 45.50356967 184.78125 45.65942383 C183.3404848 45.66027322 181.89971831 45.65978889 180.45895386 45.65809631 C176.60453404 45.6572471 172.75040307 45.67469524 168.8960495 45.69581819 C164.84689356 45.71476748 160.7977286 45.71634962 156.74853516 45.71989441 C149.10623945 45.72916191 141.46407485 45.75370273 133.82183647 45.78394288 C123.47692979 45.82397546 113.13198642 45.83998463 102.78702164 45.85744953 C86.52458319 45.88552867 70.26242119 45.945333 54 46 Z " fill="#000000" transform="translate(1885,643)"/>
<path d="M0 0 C15.91209967 14.31040109 25.88585843 33.32163073 31.19970703 53.88012695 C31.49361328 54.95262695 31.78751953 56.02512695 32.09033203 57.13012695 C34.89173731 68.11603 36.19970703 79.55372012 36.19970703 90.88012695 C19.36970703 90.88012695 2.53970703 90.88012695 -14.80029297 90.88012695 C-15.79029297 84.94012695 -16.78029297 79.00012695 -17.80029297 72.88012695 C-23.67950023 52.30290155 -34.11091101 36.34812263 -52.92041016 25.8840332 C-83.9847219 9.29488387 -122.01754941 7.92802574 -155.42529297 18.07348633 C-173.08054228 24.06988268 -186.80140319 34.79733806 -195.28857422 51.4855957 C-201.26553639 64.90673297 -202.53283977 83.51721835 -197.78076172 97.5949707 C-192.15835088 110.69899597 -184.23880726 118.43452178 -171.0480957 124.05224609 C-160.95723096 127.9109418 -150.56621415 130.16999925 -140.0340271 132.47131348 C-135.44728714 133.47502778 -130.86592097 134.50235953 -126.28401184 135.52786255 C-122.50275129 136.37390866 -118.72086335 137.21711338 -114.93896484 138.06030273 C-102.3845714 140.86262728 -89.83746433 143.69670097 -77.29954624 146.57186222 C-73.56054524 147.42902698 -69.82070478 148.28192026 -66.07809448 149.12319946 C-52.04339058 152.28025239 -38.08914348 155.5125526 -24.41748047 160.0402832 C-23.48671188 160.34842957 -22.5559433 160.65657593 -21.5969696 160.97406006 C3.37529289 169.6151199 24.64709349 186.23931132 36.63720703 210.00512695 C50.43470309 238.81533644 51.00168154 273.00698565 40.63330078 303.0715332 C30.91525164 329.62251131 10.03432296 349.6243156 -15.04785156 361.95654297 C-39.64989934 373.30752332 -67.32923056 379.93875754 -94.45263672 380.08325195 C-95.34237686 380.09026627 -96.232117 380.09728058 -97.14881897 380.10450745 C-100.01186233 380.12193056 -102.8746985 380.12836161 -105.73779297 380.13012695 C-107.20768677 380.13113907 -107.20768677 380.13113907 -108.70727539 380.13217163 C-149.16505241 380.08798031 -190.11541587 374.10179146 -221.80029297 346.88012695 C-222.61989502 346.17799072 -222.61989502 346.17799072 -223.45605469 345.46166992 C-248.63939694 323.62247692 -262.26358647 297.4246065 -265.98779297 264.31762695 C-266.07198486 263.57448242 -266.15617676 262.83133789 -266.24291992 262.06567383 C-266.9245938 255.25336629 -266.80029297 248.83149088 -266.80029297 241.88012695 C-249.97029297 241.88012695 -233.14029297 241.88012695 -215.80029297 241.88012695 C-214.81029297 249.80012695 -213.82029297 257.72012695 -212.80029297 265.88012695 C-207.22761634 287.8523948 -196.03411717 304.70544752 -176.68017578 316.7824707 C-142.92735992 336.49060838 -97.52182594 337.39184521 -60.53881836 327.9296875 C-41.95312103 322.81060893 -23.26278638 314.10312032 -13.03857422 296.91918945 C-4.65686493 280.80520113 -3.70251083 261.86360919 -8.80419922 244.4543457 C-14.66348512 229.23567241 -26.00192468 220.65231184 -40.48779297 214.19262695 C-53.97331207 208.558465 -67.8971787 204.35012439 -82.11279297 201.00512695 C-83.61908534 200.6439212 -85.12526472 200.28224404 -86.63134766 199.92016602 C-97.29422571 197.36956141 -107.97857308 194.91064353 -118.66190147 192.44746017 C-120.96119442 191.91721595 -123.2603726 191.38647664 -125.55952454 190.85562134 C-127.11007012 190.49771232 -128.66062252 190.1398328 -130.21118164 189.78198242 C-130.98318688 189.60381044 -131.75519213 189.42563847 -132.55059147 189.24206734 C-137.16675463 188.1774881 -141.78427781 187.11904836 -146.40280247 186.06476498 C-187.20468761 176.7438567 -187.20468761 176.7438567 -201.55029297 169.69262695 C-203.01523193 168.98033936 -203.01523193 168.98033936 -204.50976562 168.25366211 C-212.43911424 164.28437695 -219.21386907 159.8272803 -225.80029297 153.88012695 C-226.63560547 153.12989258 -227.47091797 152.3796582 -228.33154297 151.60668945 C-245.69753764 135.10899451 -253.13023713 112.78726991 -253.92138672 89.2824707 C-254.62992609 56.85378454 -244.16235431 27.27059472 -222.33935547 3.16137695 C-169.273195 -52.2390721 -56.29576111 -48.6995742 0 0 Z " fill="#000000" transform="translate(1125.80029296875,667.119873046875)"/>
<path d="M0 0 C16.17 0 32.34 0 49 0 C49.33 47.52 49.66 95.04 50 144 C53.3 139.71 56.6 135.42 60 131 C60.66 131 61.32 131 62 131 C62.20109375 130.45859375 62.4021875 129.9171875 62.609375 129.359375 C71.22111552 114.74844445 92.33448011 105.4342484 108 101 C135.88368234 94.12787014 167.66696489 98.02765128 193.03125 111.625 C199.6099667 115.61658092 205.72390527 120.38055855 211 126 C211 126.66 211 127.32 211 128 C211.66 128 212.32 128 213 128 C238.30152768 160.08197305 235.30804414 201.31437642 235.20278788 239.91016269 C235.19014209 245.34196384 235.18909925 250.77376806 235.18673706 256.20558167 C235.18056245 266.45421748 235.16420704 276.70280977 235.14403808 286.95142657 C235.12155269 298.63492378 235.11065412 310.31842327 235.10064721 322.00193679 C235.07983645 346.00132076 235.04321154 370.00064519 235 394 C218.5 394 202 394 185 394 C184.97812622 384.84817993 184.97812622 384.84817993 184.95581055 375.51147461 C184.90543481 355.33502929 184.8389833 335.15866045 184.76428509 314.98229122 C184.71939461 302.75146791 184.67996444 290.52067328 184.65356445 278.28979492 C184.63052967 267.62449213 184.59707064 256.9592806 184.55129844 246.29405028 C184.52744005 240.6513263 184.50866297 235.00869231 184.50238609 229.36591911 C184.49630174 224.04467748 184.47618182 218.72366587 184.44572449 213.40250969 C184.43699768 211.45924482 184.43321044 209.51594982 184.43499184 207.57266617 C184.44662314 189.01425586 183.35229713 169.37244002 169.71875 155.26171875 C162.1435244 148.9599147 152.80256208 144.95339987 143 144 C141.70835937 143.85691406 140.41671875 143.71382812 139.0859375 143.56640625 C117.8891779 141.59307023 96.36698382 145.5540144 79.40625 159.06640625 C59.79919398 176.04540807 52.04710831 199.69359154 50 225 C49.37696219 237.0657441 49.51032695 249.17739609 49.49388909 261.25528932 C49.48439378 265.93576073 49.45818317 270.61614082 49.43388367 275.29655457 C49.39051764 284.12503737 49.36178836 292.95350215 49.33856028 301.78205842 C49.31134656 311.84770366 49.26744632 321.91325564 49.22227156 331.97883379 C49.12985438 352.65251847 49.06018043 373.32619462 49 394 C32.83 394 16.66 394 0 394 C0 263.98 0 133.96 0 0 Z " fill="#000000" transform="translate(2847,643)"/>
<path d="M0 0 C15.51 0 31.02 0 47 0 C47.33 74.25 47.66 148.5 48 225 C55.90575755 217.92441507 55.90575755 217.92441507 63.50634766 210.59130859 C63.97288254 210.12331345 64.43941742 209.6553183 64.92008972 209.17314148 C65.91032971 208.17916107 66.89941681 207.18403085 67.88737869 206.1877861 C69.45891618 204.60321173 71.03379568 203.02202254 72.60946655 201.44155884 C75.95084616 198.08888798 79.28822861 194.73225643 82.625 191.375 C86.50525491 187.47097844 90.38722112 183.568689 94.27344894 179.67061234 C95.81083682 178.1268325 97.3451379 176.58003208 98.87930298 175.03305054 C103.49659272 170.3919033 108.14302661 165.84880015 113.15365601 161.62979126 C115.54294603 159.52073466 117.76060661 157.26720807 120 155 C120.7805777 154.21720169 121.5611554 153.43440338 122.36538696 152.62788391 C123.18018524 151.81006943 123.99498352 150.99225494 124.83447266 150.1496582 C129.4341099 145.53407298 134.0359111 140.92065623 138.63933754 136.30885029 C141.41680492 133.52614339 144.19331925 130.74249854 146.96777344 127.95678711 C149.66216315 125.25154063 152.35898134 122.54873724 155.05750656 119.8476162 C156.08303407 118.82024294 157.10768191 117.79199081 158.13142776 116.76284218 C159.56006099 115.32695919 160.99211221 113.89447939 162.42431641 112.4621582 C163.2375235 111.6467305 164.05073059 110.8313028 164.88858032 109.99116516 C168.72032725 106.37765286 170.86971599 105.75200696 176.03198242 105.77294922 C177.27304245 105.77310028 178.51410248 105.77325134 179.79277039 105.77340698 C181.1470048 105.7836202 182.50123758 105.79405219 183.85546875 105.8046875 C185.24123429 105.80841833 186.62700248 105.81126497 188.01277161 105.81326294 C191.6575348 105.82089392 195.30213824 105.8405377 198.94683838 105.8626709 C202.66701089 105.88314092 206.38720926 105.89226712 210.10742188 105.90234375 C217.4050207 105.92378419 224.70248795 105.95791356 232 106 C227.83519337 110.96563921 223.50293369 115.64481223 218.9140625 120.21875 C217.92314102 121.21110657 217.92314102 121.21110657 216.91220093 122.22351074 C215.52342439 123.61296345 214.13340162 125.00117156 212.7421875 126.38818359 C210.63427071 128.49075281 208.531735 130.59859604 206.4296875 132.70703125 C205.0706329 134.0654248 203.711268 135.42350798 202.3515625 136.78125 C201.73358795 137.40124878 201.1156134 138.02124756 200.47891235 138.66003418 C197.41532615 141.70754355 194.3013589 144.64237746 191.02954102 147.46606445 C186.88595533 151.04968753 183.02398997 154.86547919 179.17578125 158.76171875 C178.46648972 159.47479691 177.75719818 160.18787506 177.02641296 160.92256165 C174.78596919 163.175101 172.54882789 165.43087481 170.3125 167.6875 C167.35317916 170.67348997 164.39050949 173.65609871 161.42578125 176.63671875 C160.41938347 177.65556404 160.41938347 177.65556404 159.39265442 178.69499207 C156.06877815 182.03617291 152.70454669 185.0780335 149 188 C147.31244332 189.64551147 145.64589456 191.31281695 144 193 C137.33333333 199.66666667 130.66666667 206.33333333 124 213 C125.26955789 216.97482842 126.49126028 220.03403412 129 223.375 C132.06239192 227.60941846 134.88238211 231.93133407 137.625 236.375 C143.05512769 245.14569785 148.67832075 253.7853174 154.31787109 262.42236328 C157.09234757 266.673876 159.85866695 270.93068578 162.625 275.1875 C163.16833984 276.0235376 163.71167969 276.8595752 164.27148438 277.72094727 C165.84797018 280.14709442 167.42408295 282.57348337 169 285 C169.45552246 285.70125 169.91104492 286.4025 170.38037109 287.125 C176.24910905 296.16385594 182.07120223 305.23181192 187.875 314.3125 C194.86271243 325.24385433 201.91307099 336.13278531 209 347 C213.34336728 353.66019154 217.67685421 360.3266644 222 367 C223.05380859 368.62397705 223.05380859 368.62397705 224.12890625 370.28076172 C225.99561093 373.15881813 227.85687262 376.04033834 229.7149353 378.92398071 C230.79759352 380.60189776 231.88472878 382.2769233 232.97192383 383.9519043 C233.62700928 384.9706665 234.28209473 385.98942871 234.95703125 387.0390625 C235.54460205 387.94865723 236.13217285 388.85825195 236.73754883 389.79541016 C238 392 238 392 238 394 C229.99457036 394.46620639 221.99490421 394.8199952 213.97920609 395.03624344 C210.25514964 395.14012826 206.54044323 395.28044181 202.82177734 395.50878906 C178.91986193 396.93801758 178.91986193 396.93801758 172.54876709 392.16275024 C168.50167417 387.49184418 166.15188425 382.18482417 163.97387695 376.44866943 C162.67536279 373.1837478 160.98903505 370.52595517 159.0390625 367.60546875 C158.47316406 366.70570313 157.90726563 365.8059375 157.32421875 364.87890625 C156.76347656 363.99074219 156.20273438 363.10257813 155.625 362.1875 C150.68768314 354.32851316 145.80950958 346.43783396 141 338.5 C134.97076709 328.5535122 128.82451546 318.68392605 122.6484375 308.828125 C119.27049106 303.43691537 115.91072548 298.03471046 112.5625 292.625 C112.04816406 291.79468262 111.53382812 290.96436523 111.00390625 290.10888672 C108.27946909 285.70510516 105.56617878 281.29475898 102.86677551 276.87557983 C101.41497731 274.499188 99.96086363 272.124216 98.50680542 269.74920654 C97.46170738 268.03959926 96.42038322 266.32768678 95.37915039 264.61572266 C94.7371167 263.56690918 94.09508301 262.5180957 93.43359375 261.4375 C92.86697021 260.50808594 92.30034668 259.57867188 91.71655273 258.62109375 C89.95900145 255.93739718 88.04270835 253.4714732 86 251 C80.41304636 255.99420686 74.8711503 261.03131929 69.375 266.125 C56.58060519 277.97090566 56.58060519 277.97090566 53.30689144 280.10234261 C50.40626661 282.16860938 48.3470782 283.78554466 47.34605598 287.28820419 C47.09844017 290.10800623 47.06865304 292.85653916 47.11352539 295.68701172 C47.10274963 296.75102707 47.09197388 297.81504242 47.08087158 298.91130066 C47.05352613 302.41813804 47.07534336 305.92284389 47.09765625 309.4296875 C47.08827155 311.86493259 47.07581402 314.30016763 47.06040955 316.73538208 C47.02816252 323.1372325 47.03763439 329.5383671 47.05578613 335.94024658 C47.06693786 342.47586931 47.0386465 349.01130813 47.01367188 355.546875 C46.97050482 368.36478884 46.97505496 381.18203754 47 394 C31.49 394 15.98 394 0 394 C0 263.98 0 133.96 0 0 Z " fill="#000000" transform="translate(1235,643)"/>
<path d="M0 0 C0.73605469 0.64066406 1.47210937 1.28132812 2.23046875 1.94140625 C2.83246094 2.44800781 3.43445312 2.95460938 4.0546875 3.4765625 C18.12961347 16.30475844 27.242203 37.25170824 29.23046875 55.94140625 C29.23046875 59.24140625 29.23046875 62.54140625 29.23046875 65.94140625 C13.72046875 65.94140625 -1.78953125 65.94140625 -17.76953125 65.94140625 C-19.74953125 57.03140625 -19.74953125 57.03140625 -21.76953125 47.94140625 C-28.50955323 34.46136228 -36.00972167 28.36162798 -49.76953125 22.94140625 C-72.80031207 15.34335185 -100.98797643 16.26678167 -122.76953125 26.94140625 C-127.08524999 29.45236988 -130.37904062 32.28324531 -133.76953125 35.94140625 C-134.82140625 37.05515625 -134.82140625 37.05515625 -135.89453125 38.19140625 C-141.47702313 46.37906101 -141.54538237 55.27472067 -140.76953125 64.94140625 C-139.39913252 72.03173011 -136.51528348 77.20164591 -130.51953125 81.37890625 C-118.18644347 88.50865045 -103.76258084 91.76933474 -90.08203125 95.25390625 C-88.24016199 95.73101486 -86.39844918 96.2087278 -84.55688477 96.68701172 C-75.62076848 98.99693516 -66.66946536 101.22771098 -57.68359375 103.3359375 C-2.75116423 116.23620732 -2.75116423 116.23620732 17.23046875 132.94140625 C17.81957031 133.38742187 18.40867187 133.8334375 19.015625 134.29296875 C30.75031616 143.5259785 36.56465265 157.91266444 38.56640625 172.3671875 C38.85689993 174.89134208 39.06409477 177.40618362 39.23046875 179.94140625 C39.31167969 181.02421875 39.31167969 181.02421875 39.39453125 182.12890625 C40.23272114 204.07424158 32.68258377 227.10086224 17.79296875 243.31640625 C15.97093399 245.22873324 14.11122734 247.08500281 12.23046875 248.94140625 C11.11865234 250.05128906 11.11865234 250.05128906 9.984375 251.18359375 C-12.09786656 272.0097812 -44.09669548 279.3590957 -73.56958008 279.20214844 C-75.93662596 279.19149806 -78.30289991 279.20206896 -80.66992188 279.21484375 C-111.59848711 279.24451009 -144.51179085 273.44981247 -168.76953125 252.94140625 C-169.74277344 252.16539062 -170.71601563 251.389375 -171.71875 250.58984375 C-189.4049527 235.79067398 -195.6123982 212.41017361 -198.47265625 190.5390625 C-198.70479195 187.72594434 -198.80030518 185.03196291 -198.78808594 182.21655273 C-198.7854071 181.41370346 -198.78272827 180.61085419 -198.77996826 179.78367615 C-198.77652405 179.17572708 -198.77307983 178.56777802 -198.76953125 177.94140625 C-192.09432785 177.9161368 -185.41913668 177.89857357 -178.74389648 177.88647461 C-176.47110534 177.881433 -174.19831745 177.87459988 -171.92553711 177.8659668 C-168.66649574 177.85389364 -165.40749708 177.84817638 -162.1484375 177.84375 C-161.12553116 177.83858871 -160.10262482 177.83342743 -159.04872131 177.82810974 C-158.1078215 177.82803421 -157.16692169 177.82795868 -156.19750977 177.82788086 C-155.36478043 177.82566025 -154.53205109 177.82343964 -153.67408752 177.82115173 C-151.76953125 177.94140625 -151.76953125 177.94140625 -150.76953125 178.94140625 C-150.46698632 181.04124782 -150.20344303 183.14674007 -149.95703125 185.25390625 C-148.03858684 199.04710144 -143.55874539 211.86327375 -132.578125 220.9921875 C-109.49620071 237.01149239 -79.68813264 238.55411762 -52.70703125 233.69140625 C-38.92655127 230.52295706 -25.20777425 225.24091613 -16.98046875 213.06640625 C-11.37192994 203.22432523 -9.62511036 193.66807287 -11.98046875 182.55078125 C-14.34431724 174.73369811 -19.26466693 169.59774789 -26.1875 165.515625 C-43.90433461 156.05850087 -64.09319205 152.18607759 -83.44940186 147.4621582 C-116.92622505 139.28768536 -116.92622505 139.28768536 -129.7421875 135.65625 C-130.54791702 135.42965698 -131.35364655 135.20306396 -132.18379211 134.96960449 C-147.12666303 130.63827383 -161.4365544 123.77069524 -172.76953125 112.94140625 C-172.76953125 112.28140625 -172.76953125 111.62140625 -172.76953125 110.94140625 C-173.42953125 110.94140625 -174.08953125 110.94140625 -174.76953125 110.94140625 C-187.55745518 94.03073464 -192.00151323 74.84380404 -189.26953125 53.73828125 C-185.95616004 31.43944339 -175.59749044 11.98246101 -157.76953125 -2.05859375 C-114.36297113 -33.51506476 -42.01927112 -35.20533526 0 0 Z " fill="#000000" transform="translate(2753.76953125,766.05859375)"/>
<path d="M0 0 C16.17 0 32.34 0 49 0 C49.029729 8.97791748 49.029729 8.97791748 49.06005859 18.13720703 C49.12700587 37.92648076 49.20454664 57.71570255 49.28752708 77.50491524 C49.33757326 89.50147359 49.38401692 101.49802539 49.421875 113.49462891 C49.45489496 123.95517922 49.49478098 134.41567739 49.54279006 144.87617004 C49.56795584 150.41097576 49.58976606 155.94574735 49.60334396 161.48059464 C49.6162548 166.699192 49.63840487 171.91767167 49.66738319 177.13620377 C49.67638891 179.04280315 49.68213264 180.94942144 49.68421364 182.85604095 C49.70981438 202.76385964 50.46063877 223.97118415 65.1015625 239.18359375 C69.6576665 243.45004852 74.15358218 246.78202197 80 249 C80.75152344 249.28617188 81.50304688 249.57234375 82.27734375 249.8671875 C99.87904246 255.56265241 121.34772795 253.94933279 138 246 C157.73358798 235.64046721 169.06137058 219.05972738 176.2578125 198.38671875 C180.3219556 184.85462745 181.29922744 171.59965992 181.30297852 157.56738281 C181.31065674 155.85281989 181.31920629 154.13826069 181.32855225 152.42370605 C181.34669921 148.75979465 181.35882071 145.09593293 181.36609077 141.43198395 C181.37764801 135.64216161 181.40312888 129.85244969 181.43040466 124.06268311 C181.471893 114.91638111 181.50439141 105.77007371 181.53287882 96.62372279 C181.58407431 80.20814305 181.64591894 63.7926086 181.71821922 47.37710834 C181.74317119 41.61619062 181.76258703 35.85528792 181.77760136 30.09433603 C181.78776859 26.52592509 181.80191218 22.95753775 181.81707764 19.3891449 C181.82325737 17.72862551 181.82770302 16.06809868 181.83033562 14.40756989 C181.83411921 12.15116531 181.84390739 9.89486611 181.85523987 7.63848877 C181.85909478 6.37315937 181.8629497 5.10782997 181.86692142 3.80415726 C182 1 182 1 183 0 C199.17 0 215.34 0 232 0 C232 95.04 232 190.08 232 288 C216.49 288 200.98 288 185 288 C184.67 274.47 184.34 260.94 184 247 C180.535 252.445 180.535 252.445 177 258 C175.09466317 260.32063482 173.25740828 262.47893538 171.1875 264.625 C170.67106934 265.16858154 170.15463867 265.71216309 169.62255859 266.2722168 C168.09574695 267.86266516 166.5522491 269.43440925 165 271 C164.17371094 271.83917969 163.34742187 272.67835938 162.49609375 273.54296875 C141.88313527 293.27299985 114.25331033 296.78389252 86.9296875 296.28515625 C64.04891684 295.54716648 42.30593346 288.36981354 25 273 C24.30261719 272.39671875 23.60523437 271.7934375 22.88671875 271.171875 C7.40269118 256.86042427 0.54629528 234.54287815 -0.27155113 213.95153618 C-0.40307744 208.28983316 -0.37209221 202.62925594 -0.34057617 196.96655273 C-0.33972796 194.8064373 -0.34020882 192.64632099 -0.34190369 190.48620605 C-0.34275748 184.67533701 -0.32523234 178.86465723 -0.30418181 173.05383182 C-0.28531143 166.96135869 -0.28365646 160.86888029 -0.28010559 154.77638245 C-0.27081538 143.2631762 -0.24624287 131.75005635 -0.21605712 120.23688799 C-0.18241853 107.1194641 -0.1660034 94.00203589 -0.15097082 80.88457954 C-0.11969036 53.92299423 -0.06471643 26.96152721 0 0 Z " fill="#000000" transform="translate(2270,749)"/>
<path d="M0 0 C16.5 0 33 0 50 0 C50.02258321 50.04885468 50.04049707 100.09770814 50.05106533 150.14656689 C50.05231611 156.04863901 50.05361043 161.95071111 50.05493164 167.8527832 C50.05519395 169.0278325 50.05545626 170.20288179 50.05572652 171.41353864 C50.06008372 190.46648487 50.06797153 209.5194281 50.0771528 228.57237255 C50.08648796 248.10690155 50.09205532 267.64142898 50.09408849 287.17596012 C50.09546401 299.24017438 50.09981612 311.30438015 50.10791647 323.36859179 C50.11318224 331.62947101 50.11480468 339.8903458 50.11350138 348.15122657 C50.11285773 352.92490942 50.11387848 357.69857738 50.11920547 362.47225761 C50.12403865 366.83499827 50.1243392 371.19771392 50.12089889 375.56045569 C50.12047312 377.14592783 50.12176955 378.73140148 50.12488318 380.31687062 C50.12884593 382.45772033 50.12676419 384.59847751 50.12304783 386.73932552 C50.12361741 388.52951702 50.12361741 388.52951702 50.1241985 390.355874 C50 393 50 393 49 394 C32.83 394 16.66 394 0 394 C0 263.98 0 133.96 0 0 Z " fill="#000000" transform="translate(1630,643)"/>
<path d="M0 0 C16.17 0 32.34 0 49 0 C49 130.02 49 260.04 49 394 C32.83 394 16.66 394 0 394 C0 263.98 0 133.96 0 0 Z " fill="#000000" transform="translate(1752,643)"/>
<path d="M0 0 C16.17 0 32.34 0 49 0 C49 95.04 49 190.08 49 288 C32.83 288 16.66 288 0 288 C0 192.96 0 97.92 0 0 Z " fill="#000000" transform="translate(1509,749)"/>
<path d="M0 0 C16.17 0 32.34 0 49 0 C49 18.15 49 36.3 49 55 C32.83 55 16.66 55 0 55 C0 36.85 0 18.7 0 0 Z " fill="#000000" transform="translate(1509,643)"/>
<path d="" fill="#000000" transform="translate(0,0)"/>
</svg>
