<?xml version="1.0" encoding="UTF-8"?>
<svg version="1.1" xmlns="http://www.w3.org/2000/svg" width="485" height="932">
<path d="M0 0 C1.20804584 3.62413752 1.06842898 6.8829061 0.9921875 10.6484375 C0.97178733 12.21653965 0.95246058 13.78465605 0.93408203 15.3527832 C0.91840179 16.58310776 0.91840179 16.58310776 0.90240479 17.83828735 C0.74450043 32.45463878 0.85985515 46.65695112 4 61 C4.20931152 61.95616211 4.41862305 62.91232422 4.63427734 63.89746094 C8.58854333 81.45518547 13.72697323 98.52395333 21 115 C21.5916855 116.37867477 22.18278828 117.7575997 22.7734375 119.13671875 C27.34527583 129.71571323 32.47760034 139.88909622 38 150 C38.52335938 150.97195312 39.04671875 151.94390625 39.5859375 152.9453125 C41.04144021 155.63919873 42.51928079 158.31989823 44 161 C44.61875 162.13953125 45.2375 163.2790625 45.875 164.453125 C51.41731067 174.56483837 57.52583044 184.27465741 63.765625 193.96875 C64.31154297 194.81824219 64.85746094 195.66773438 65.41992188 196.54296875 C66.45452108 198.15177691 67.49216882 199.75862965 68.53320312 201.36328125 C68.99146484 202.07871094 69.44972656 202.79414063 69.921875 203.53125 C70.3250293 204.15580078 70.72818359 204.78035156 71.14355469 205.42382812 C72 207 72 207 72 209 C72.66 209 73.32 209 74 209 C75.3046875 210.80859375 75.3046875 210.80859375 76.875 213.4375 C80.07284205 218.6155957 83.47378565 223.60253213 87 228.5625 C87.52787109 229.30508057 88.05574219 230.04766113 88.59960938 230.81274414 C89.62097543 232.24836275 90.64276625 233.68367928 91.66503906 235.11865234 C93.25392692 237.35785678 94.81566064 239.61514524 96.375 241.875 C98.69866777 245.21782031 101.10304712 248.49354982 103.53515625 251.7578125 C104.17469238 252.61777832 104.81422852 253.47774414 105.47314453 254.36376953 C106.77057197 256.10496037 108.07225629 257.84298829 109.37841797 259.57763672 C109.97412598 260.3770166 110.56983398 261.17639648 111.18359375 262 C111.99654907 263.0828125 111.99654907 263.0828125 112.82592773 264.1875 C114 266 114 266 114 268 C114.66 268 115.32 268 116 268 C116.98831194 269.410973 117.96785706 270.82936527 118.88964844 272.28466797 C121.33382013 276.06055854 124.22348088 279.5442602 126.9765625 283.09765625 C128.79938803 285.71224963 129.97605465 287.99973001 131 291 C131.66 291 132.32 291 133 291 C134.7265625 293.1171875 134.7265625 293.1171875 136.625 295.875 C137.25664062 296.77992188 137.88828125 297.68484375 138.5390625 298.6171875 C140 301 140 301 140 303 C140.66 303 141.32 303 142 303 C142.91005609 304.29507982 143.80634977 305.60113685 144.6484375 306.94140625 C147.0608992 310.61587826 149.75703632 314.09151567 152.390625 317.609375 C154 320 154 320 154 322 C154.66 322 155.32 322 156 322 C156.96291113 323.36484056 157.91410726 324.73927074 158.80859375 326.14990234 C160.08111027 328.12595362 161.43145142 330.02407736 162.8125 331.92578125 C163.32441895 332.63105957 163.83633789 333.33633789 164.36376953 334.06298828 C164.90372559 334.80532715 165.44368164 335.54766602 166 336.3125 C172.40782867 345.15657244 178.74198117 354.0493048 185 363 C185.45584473 363.65145996 185.91168945 364.30291992 186.38134766 364.97412109 C197.50213438 380.90497822 208.18699306 397.11356768 217.84130859 413.97949219 C218.98495837 415.97377063 220.14211397 417.95973099 221.30078125 419.9453125 C226.728064 429.32702494 231.44318535 438.96554443 235.97851562 448.80566406 C236.87537598 450.73228473 237.80249741 452.64475821 238.734375 454.5546875 C248.57282856 474.84064174 256.53364062 496.12811631 262 518 C262.30421875 519.21719727 262.6084375 520.43439453 262.921875 521.68847656 C274.90434331 570.46085207 276.03986206 622.49211083 258 670 C257.72929687 670.71736328 257.45859375 671.43472656 257.1796875 672.17382812 C253.66105602 681.37324081 249.56703862 690.11516813 244.796875 698.73046875 C243.66450782 700.79088468 242.57335605 702.87502044 241.54296875 704.98828125 C239.75421022 708.47975676 237.7074915 711.71984606 235.5625 715 C235.18029297 715.59039063 234.79808594 716.18078125 234.40429688 716.7890625 C233.64589748 717.95820792 232.88376862 719.12494377 232.11767578 720.2890625 C231.36414544 721.44256635 230.62312669 722.60432842 229.89404297 723.7734375 C228.98027233 725.21583228 227.99584824 726.61300117 227 728 C226.34 728 225.68 728 225 728 C224.64615234 729.07701172 224.64615234 729.07701172 224.28515625 730.17578125 C222.78786671 733.46617742 220.91219474 735.5618608 218.4375 738.1875 C215.35814202 741.34188937 215.35814202 741.34188937 213 745 C212.34 745 211.68 745 211 745 C210.67 745.99 210.34 746.98 210 748 C209.34 748 208.68 748 208 748 C207.67 748.99 207.34 749.98 207 751 C206.34 751 205.68 751 205 751 C204.67 751.99 204.34 752.98 204 754 C203.34 754 202.68 754 202 754 C201.67 754.99 201.34 755.98 201 757 C200.34 757 199.68 757 199 757 C199 757.66 199 758.32 199 759 C197.30411736 760.54091405 195.54178328 762.00923297 193.75 763.4375 C192.77546875 764.21996094 191.8009375 765.00242187 190.796875 765.80859375 C188.55089665 767.5683617 186.29290157 769.30216098 184 771 C183.34 770.67 182.68 770.34 182 770 C182.61875 769.29101562 183.2375 768.58203125 183.875 767.8515625 C189.12206313 760.81046675 190.3536728 750.84721447 192.1875 742.375 C192.35443359 741.6123584 192.52136719 740.8497168 192.69335938 740.06396484 C196.81842043 720.15587698 196.54911638 697.96121522 193 678 C192.8870459 677.28634277 192.7740918 676.57268555 192.65771484 675.83740234 C189.58436636 656.50451809 183.37683642 637.66986305 175 620 C174.28548155 618.44445872 173.57189916 616.88848704 172.859375 615.33203125 C166.19127238 600.97441596 158.6844935 587.3501135 150.09790039 574.05004883 C147 569.20869325 147 569.20869325 147 567 C146.34 567 145.68 567 145 567 C143.66015625 565.12109375 143.66015625 565.12109375 142.0625 562.4375 C138.53428916 556.69668236 134.62844001 551.3197809 130.55688477 545.95288086 C127 541.20850267 127 541.20850267 127 539 C126.34 539 125.68 539 125 539 C123.4420073 537.13711637 121.99609039 535.26815092 120.5625 533.3125 C116.09084031 527.3483588 111.39137366 521.63261628 106.54296875 515.97265625 C105.28419922 514.50119141 105.28419922 514.50119141 104 513 C103.52643066 512.45843262 103.05286133 511.91686523 102.56494141 511.35888672 C99 507.22004613 99 507.22004613 99 505 C98.01 504.67 97.02 504.34 96 504 C94.484375 502.27734375 94.484375 502.27734375 92.75 499.9375 C88.19535341 494.03871899 83.10770678 488.71210287 77.92871094 483.35913086 C77.29223633 482.69405518 76.65576172 482.02897949 76 481.34375 C75.4225 480.74755859 74.845 480.15136719 74.25 479.53710938 C73 478 73 478 73 476 C72.34 476 71.68 476 71 476 C69.765625 474.7421875 69.765625 474.7421875 68.25 472.875 C64.17739179 468.06658442 59.73888398 463.68039977 55.23925781 459.27685547 C52.27204525 456.35212686 49.42850648 453.38519553 46.71484375 450.22265625 C42.24632561 445.04864821 37.40475947 440.25911017 32.5625 435.4375 C31.65951172 434.53064453 30.75652344 433.62378906 29.82617188 432.68945312 C28.93607422 431.80064453 28.04597656 430.91183594 27.12890625 429.99609375 C26.33556885 429.20388428 25.54223145 428.4116748 24.72485352 427.59545898 C22.56925627 425.54222412 20.38680441 423.58250954 18.13671875 421.63671875 C14.15861205 418.18051353 10.40270245 414.54775938 6.68359375 410.81640625 C6.02343765 410.15720688 5.36328156 409.49800751 4.68312073 408.8188324 C3.29964494 407.43603165 1.91740917 406.05198924 0.53637695 404.66674805 C-1.55731669 402.56769657 -3.65629874 400.4740406 -5.75585938 398.38085938 C-7.10969571 397.02636214 -8.46322175 395.67155469 -9.81640625 394.31640625 C-10.43326797 393.70156876 -11.0501297 393.08673126 -11.6856842 392.45326233 C-15.44446212 388.67454767 -19.01033297 384.77609696 -22.48364258 380.73310852 C-24.98845228 377.87025642 -27.74435986 375.28525873 -30.49609375 372.6640625 C-32 371 -32 371 -32 369 C-32.66 369 -33.32 369 -34 369 C-35.41438406 367.42713316 -36.75604401 365.78860004 -38.0625 364.125 C-41.08271834 360.34249013 -44.15212393 356.67928585 -47.4375 353.125 C-55.91998649 343.78539816 -63.19974494 333.61096403 -70 323 C-70.40250977 322.37689941 -70.80501953 321.75379883 -71.21972656 321.11181641 C-76.67619341 312.64581231 -81.8309696 304.18932878 -86 295 C-86.30647461 294.33194336 -86.61294922 293.66388672 -86.92871094 292.97558594 C-99.0165406 266.38236067 -104.23756239 239.4590799 -104.1875 210.3125 C-104.18656342 209.6049054 -104.18562683 208.89731079 -104.18466187 208.16827393 C-104.08043696 171.79634963 -93.81266819 136.60952734 -78 104 C-77.69191406 103.36191406 -77.38382813 102.72382812 -77.06640625 102.06640625 C-70.3937207 88.30572278 -63.17541901 74.80644853 -55 61.875 C-54.62625244 61.27671387 -54.25250488 60.67842773 -53.86743164 60.06201172 C-52.96782758 58.67003007 -51.99100597 57.32846059 -51 56 C-50.34 56 -49.68 56 -49 56 C-48.74347656 55.28199219 -48.48695312 54.56398437 -48.22265625 53.82421875 C-44.73244786 45.76217188 -38.28410275 38.96450411 -32.37109375 32.58203125 C-30.44641652 30.48613068 -28.5805311 28.36130269 -26.72265625 26.20703125 C-22.98355248 21.92123088 -19.0321334 17.88396021 -15 13.875 C-14.32710938 13.19824219 -13.65421875 12.52148438 -12.9609375 11.82421875 C-8.79847609 7.66979298 -4.51221258 3.77192771 0 0 Z " fill="#1988AB" transform="translate(153,8)"/>
<path d="M0 0 C0.96175515 2.88526544 1.08371633 4.4955447 0.9921875 7.47265625 C0.31119144 39.0903306 9.64783372 67.0041765 24.69042969 94.5949707 C25.60485974 96.27432388 26.51112459 97.95813754 27.41113281 99.64526367 C30.93386618 106.20998774 34.72993399 112.54126423 38.75 118.8125 C39.35980713 119.76737305 39.96961426 120.72224609 40.59790039 121.70605469 C45.49417142 129.3214761 50.64889861 136.70045139 56 144 C57.38163748 145.91188754 58.75729774 147.82811898 60.125 149.75 C60.68445313 150.52859375 61.24390625 151.3071875 61.8203125 152.109375 C63 154 63 154 63 156 C63.66 156 64.32 156 65 156 C67.6020866 159.49655387 69.54997977 162.89160936 71 167 C71.66 167 72.32 167 73 167 C74.19140625 168.546875 74.19140625 168.546875 75.5625 170.75 C79.97239832 177.59666365 84.93367555 184.03070884 89.91015625 190.47265625 C90.45542969 191.18292969 91.00070313 191.89320313 91.5625 192.625 C92.03816406 193.23601562 92.51382813 193.84703125 93.00390625 194.4765625 C94 196 94 196 94 198 C94.66 198 95.32 198 96 198 C97.5078125 199.8984375 97.5078125 199.8984375 99.125 202.375 C99.66382813 203.18710937 100.20265625 203.99921875 100.7578125 204.8359375 C102 207 102 207 102 209 C102.66 209 103.32 209 104 209 C105.75606776 211.32008258 107.39021035 213.64325091 109 216.0625 C109.48621826 216.78187744 109.97243652 217.50125488 110.47338867 218.24243164 C111.98961121 220.4901155 113.49571674 222.74431226 115 225 C115.91262068 226.36207281 116.82537526 227.7240559 117.73828125 229.0859375 C119.4198526 231.598229 121.09354752 234.1155131 122.76171875 236.63671875 C124.14022534 238.71764908 125.53769682 240.77810417 126.95703125 242.83203125 C127.50746094 243.62996094 128.05789063 244.42789063 128.625 245.25 C129.32496094 246.24773437 129.32496094 246.24773437 130.0390625 247.265625 C131 249 131 249 131 252 C131.66 252 132.32 252 133 252 C138.23417405 261.55236765 143.26992 271.18752746 148 281 C148.49717529 282.02988037 148.49717529 282.02988037 149.00439453 283.08056641 C157.10032093 300.05155819 164.11933785 318.3515029 167 337 C167.20238281 338.28519531 167.40476562 339.57039063 167.61328125 340.89453125 C173.29595151 381.24429868 166.30483544 420.54482612 141.75 453.5 C141.28851563 454.08652344 140.82703125 454.67304687 140.3515625 455.27734375 C139.39671099 456.49436548 138.47781223 457.74000643 137.5859375 459.00390625 C133.94318417 464.13687685 129.81626509 467.98210678 125 472 C123.32861548 473.47383363 121.66191424 474.95299575 120 476.4375 C119.236875 477.11683594 118.47375 477.79617188 117.6875 478.49609375 C117.130625 478.99238281 116.57375 479.48867188 116 480 C115.34 479.67 114.68 479.34 114 479 C114.69222656 477.95585938 114.69222656 477.95585938 115.3984375 476.890625 C117.1022044 473.81553352 117.87195174 471.17595583 118.625 467.75 C118.86476563 466.69296875 119.10453125 465.6359375 119.3515625 464.546875 C122.09922679 449.51748235 122.5292344 432.89898385 119 418 C118.5978125 416.14568359 118.5978125 416.14568359 118.1875 414.25390625 C110.6260452 380.70809869 90.56600455 351.25578742 68.7421875 325.31640625 C67 323 67 323 67 321 C66.34 321 65.68 321 65 321 C63.66015625 319.453125 63.66015625 319.453125 62.0625 317.25 C58.51908739 312.52795226 54.63049719 308.24917389 50.55688477 303.98730469 C47 300.20970779 47 300.20970779 47 298 C46.34 298 45.68 298 45 298 C43.63823078 296.35648543 42.31037934 294.68477344 41 293 C39.34779846 291.31899267 37.67906253 289.65417791 36 288 C35.1383876 287.14060822 34.27677521 286.28121643 33.38905334 285.39578247 C32.45894943 284.46869476 31.52884552 283.54160706 30.57055664 282.58642578 C25.30420723 277.33641384 20.04040031 272.08386048 14.77803898 266.82985115 C11.60310565 263.66013893 8.42724162 260.49137083 5.24926758 257.32470703 C2.1614269 254.24778007 -0.92392066 251.16837289 -4.00760078 248.08727646 C-5.17679946 246.91991376 -6.34687228 245.75342585 -7.51786613 244.58786392 C-19.80705819 232.35345142 -19.80705819 232.35345142 -24 227 C-24 226.34 -24 225.68 -24 225 C-24.89138672 224.62294922 -24.89138672 224.62294922 -25.80078125 224.23828125 C-43.93191299 214.02945574 -56.05691354 180.67386598 -61.921875 162.1796875 C-72.69676461 123.18253979 -59.34774142 82.14520376 -40.23095703 48.09912109 C-37.42538618 43.31484934 -34.31277017 38.73483816 -31.1640625 34.171875 C-29.82851009 32.21435053 -28.53661352 30.2251747 -27.3203125 28.19140625 C-25.81494218 25.69284781 -24.09411999 24.03594999 -22 22 C-20.95163992 20.79746932 -19.91083449 19.58833664 -18.875 18.375 C-13.09696172 11.72527491 -6.96741704 5.4053271 0 0 Z " fill="#1988AB" transform="translate(145,452)"/>
</svg>
