<?xml version="1.0" encoding="UTF-8"?>
<svg version="1.1" xmlns="http://www.w3.org/2000/svg" width="3163" height="1254">
<path d="M0 0 C-0.01571045 1.0202124 -0.0314209 2.0404248 -0.04760742 3.09155273 C-0.32959201 23.23907576 -0.49422012 43.08358882 3 63 C3.18272461 64.06702148 3.36544922 65.13404297 3.55371094 66.23339844 C8.38194971 93.45071159 17.31998706 119.97072911 29 145 C29.43892578 145.95181152 29.87785156 146.90362305 30.33007812 147.88427734 C41.70952748 172.46721157 54.6518388 196.03367977 69 219 C70.04205396 220.6859586 71.08373218 222.37214951 72.125 224.05859375 C77.77178628 233.15421702 83.70243301 241.98330307 89.93359375 250.6875 C93.19149633 255.24500306 96.34871303 259.86839983 99.5 264.5 C105.56979511 273.40326739 111.74363483 282.22696149 118 291 C118.50466797 291.70946777 119.00933594 292.41893555 119.52929688 293.14990234 C126.50391646 302.94119523 133.67309037 312.56448585 140.98291016 322.10791016 C147.18679947 330.21565425 153.24935457 338.42182287 159.28222656 346.65722656 C162.18070828 350.61030083 165.09099503 354.55466707 168 358.5 C169.16672217 360.08329243 170.33338887 361.66662575 171.5 363.25 C172.36625 364.425625 172.36625 364.425625 173.25 365.625 C175 368 176.75 370.375 178.5 372.75 C179.0775 373.53366943 179.655 374.31733887 180.25 375.12475586 C181.41697759 376.70867396 182.58364414 378.29282128 183.75 379.87719727 C186.65940656 383.82851881 189.57405119 387.77575251 192.5 391.71484375 C200.22716537 402.13131283 207.74820035 412.67324862 215.14208984 423.32861328 C217.10434445 426.15003114 219.07673013 428.96416855 221.05078125 431.77734375 C238.55001946 456.74702907 254.19314618 482.47638345 268.58398438 509.36914062 C269.95001629 511.90713371 271.33974971 514.43075954 272.734375 516.953125 C295.55437038 558.70947461 311.9154104 606.76893945 318 654 C318.08366821 654.63898224 318.16733643 655.27796448 318.25354004 655.93630981 C319.95187368 669.23403426 320.40435593 682.41518923 320.375 695.8125 C320.3737915 696.84013458 320.37258301 697.86776917 320.37133789 698.92654419 C320.25810689 734.58015409 314.48583756 770.19143347 300 803 C299.39115967 804.38058594 299.39115967 804.38058594 298.77001953 805.7890625 C282.40011367 842.3610464 255.58593425 884.8516998 221 907 C220.01 907 219.02 907 218 907 C218.60714844 905.88238281 219.21429688 904.76476562 219.83984375 903.61328125 C222.17021639 898.93919609 223.4230967 894.26583382 224.5625 889.1875 C224.77229492 888.27750244 224.98208984 887.36750488 225.19824219 886.42993164 C231.26945634 859.41115771 233.32557548 831.45282708 229 804 C228.8146167 802.80358887 228.8146167 802.80358887 228.62548828 801.58300781 C225.10632332 779.63194979 218.48580611 758.51535517 210 738 C209.66806641 737.1970752 209.33613281 736.39415039 208.99414062 735.56689453 C199.10917568 712.00645343 186.32786068 690.10422076 172 669 C171.01011924 667.52493914 170.02051499 666.04969266 169.03125 664.57421875 C163.10710678 655.79697294 156.84621766 647.29050509 150.42578125 638.87109375 C149.08047902 637.10561493 147.74262558 635.33473961 146.40625 633.5625 C141.35451383 626.89393069 136.08196476 620.4643814 130.64453125 614.109375 C128.25878987 611.31756824 125.93509368 608.47988725 123.625 605.625 C115.30144128 595.41377707 106.59652105 585.53105009 97.6328125 575.87890625 C95.59637419 573.65211836 93.60081837 571.40532737 91.62109375 569.12890625 C88.13849327 565.13512862 84.56391937 561.23826261 80.9375 557.375 C80.29554688 556.68986328 79.65359375 556.00472656 78.9921875 555.29882812 C74.04504649 550.04672637 68.99032877 544.91319726 63.83178711 539.86865234 C61.01459819 537.09623485 58.33447317 534.26753059 55.76147461 531.26586914 C52.19334531 527.1694103 48.44402235 523.29902024 44.59765625 519.46484375 C43.91626083 518.78249161 43.23486542 518.10013947 42.53282166 517.39710999 C41.10294259 515.96655563 39.67182089 514.53724233 38.23950195 513.10913086 C36.06802289 510.94300926 33.90193675 508.77159826 31.73632812 506.59960938 C30.33625798 505.20020013 28.93587762 503.80110116 27.53515625 502.40234375 C26.89844498 501.76360825 26.2617337 501.12487274 25.60572815 500.46678162 C21.84270888 496.72297254 17.95816289 493.18725968 13.94313049 489.71629333 C10.88336043 487.0137147 8.00182071 484.14484396 5.12109375 481.25390625 C4.50532974 480.63909897 3.88956573 480.02429169 3.25514221 479.39085388 C1.96582358 478.10220975 0.67774267 476.81232612 -0.60913086 475.52124023 C-2.5579687 473.56704376 -4.51209272 471.61824853 -6.46679688 469.66992188 C-11.99614126 464.14322467 -17.47785453 458.63745284 -22.54272461 452.67553711 C-25.04387293 449.79978222 -27.77573306 447.16220232 -30.5 444.5 C-34.61014748 440.43594873 -38.60220835 436.3445779 -42.34375 431.93359375 C-44.25985577 429.69663065 -46.25512856 427.54196422 -48.25 425.375 C-53.27587691 419.79822595 -57.86513038 413.92864096 -62.45068359 407.99072266 C-64.09304119 405.88045102 -65.75742012 403.78898208 -67.42578125 401.69921875 C-95.99995555 365.75967608 -115.36322057 324.59746625 -122 279 C-122.1045752 278.28271729 -122.20915039 277.56543457 -122.31689453 276.82641602 C-132.19805795 195.71779646 -96.89078676 112.2153395 -48.44091797 48.81201172 C-45.39516923 44.98186141 -42.06991968 41.42643377 -38.703125 37.87890625 C-36.71400754 35.76043867 -34.81811881 33.62872671 -32.93359375 31.421875 C-28.34431668 26.14838524 -23.38792599 21.23805123 -18.43774414 16.30737305 C-16.8017169 14.67675253 -15.17116368 13.04079267 -13.54101562 11.40429688 C-12.49250835 10.35644968 -11.4436913 9.30891235 -10.39453125 8.26171875 C-9.91216507 7.77732834 -9.42979889 7.29293793 -8.93281555 6.79386902 C-2.09182282 0 -2.09182282 0 0 0 Z " fill="#1888AB" transform="translate(204,81)"/>
<path d="M0 0 C35.145 -0.061875 70.29 -0.12375 106.5 -0.1875 C123.08733398 -0.22846802 123.08733398 -0.22846802 140.00976562 -0.27026367 C153.61230469 -0.28381348 153.61230469 -0.28381348 159.99938965 -0.28633118 C164.41838183 -0.28910308 168.83726364 -0.30025243 173.25622559 -0.31672668 C178.92284733 -0.33756684 184.58931254 -0.34342573 190.25596905 -0.33921683 C192.31689682 -0.34009469 194.37783106 -0.34588596 196.43872547 -0.35764539 C236.61978431 -0.57594779 278.52271287 6.86511468 308.55859375 35.43359375 C331.72544956 59.88526652 336.83845989 91.22792092 336.28515625 123.62890625 C335.57211852 147.14125087 328.5925945 169.99795381 313 188 C312.07767578 189.11955078 312.07767578 189.11955078 311.13671875 190.26171875 C302.37613514 200.60236754 291.25458316 207.67701789 280 215 C283.28073824 217.69230116 286.72001853 219.34758399 290.5625 221.125 C305.90747066 228.6143544 316.36815111 240.29888821 321.9453125 256.47265625 C325.22162114 267.43008849 327.19773812 278.10165316 327.9921875 289.52734375 C328.1155825 291.24559105 328.1155825 291.24559105 328.24147034 292.99855042 C328.9706095 303.63623895 329.47781868 314.2825702 329.96484375 324.93359375 C330.00483427 325.80420944 330.04482479 326.67482513 330.08602715 327.57182312 C330.45879489 335.70443149 330.8273645 343.83720326 331.17456055 351.97094727 C331.36735409 356.47650798 331.57217228 360.98139092 331.78451729 365.48607063 C331.86190662 367.17572379 331.93492437 368.86558393 332.00315666 370.55563164 C332.52129683 389.84494501 332.52129683 389.84494501 342 406 C345.43752518 408.97455882 348.91734319 411.9586716 353 414 C353 417.3 353 420.6 353 424 C329.57 424 306.14 424 282 424 C279.50956914 417.35885104 278.04403595 411.98862033 277 405.125 C276.83266357 404.02494629 276.66532715 402.92489258 276.49291992 401.79150391 C272.62735295 374.48759925 271.77238683 346.73922321 271.08398438 319.203125 C270.51356622 297.44764171 268.56566214 275.34449156 252.19921875 259.2265625 C236.1203336 246.21196167 216.90048075 243.87494546 196.95507812 243.79467773 C195.41220594 243.78494985 193.86933635 243.77480372 192.32646942 243.76427555 C188.21223055 243.73734657 184.09798112 243.71610678 179.98370361 243.69608307 C176.1163921 243.67638847 172.24912051 243.65151287 168.38183594 243.6270752 C157.0879208 243.55870358 145.79395681 243.49860212 134.5 243.4375 C109.255 243.293125 84.01 243.14875 58 243 C58 302.73 58 362.46 58 424 C38.86 424 19.72 424 0 424 C0 284.08 0 144.16 0 0 Z M58 50 C58 97.19 58 144.38 58 193 C81.30625 193.061875 104.6125 193.12375 128.625 193.1875 C135.94252441 193.21481201 143.26004883 193.24212402 150.79931641 193.27026367 C157.44645481 193.28030637 157.44645481 193.28030637 164.09359741 193.28633118 C167.01936892 193.28908925 169.94497164 193.30018061 172.87069702 193.31672668 C219.65668502 193.73705774 219.65668502 193.73705774 259.4921875 171.6953125 C272.50276803 157.71197829 276.40721772 139.80231807 276.3125 121.25 C276.30758545 120.10764893 276.3026709 118.96529785 276.29760742 117.78833008 C276.02386473 98.00445428 271.0099662 79.5021579 256.5 65.3125 C240.53621446 52.24549605 221.36804768 49.83625403 201.49609375 49.88647461 C199.92843121 49.88675701 198.36076854 49.88659771 196.79310608 49.8860321 C192.55609994 49.8857462 188.31912234 49.89160951 184.0821228 49.89860606 C179.64719794 49.90487401 175.21227236 49.90544612 170.77734375 49.90663147 C162.38756124 49.90973465 153.99779182 49.91793436 145.60801506 49.92798096 C134.26498028 49.94126804 122.9219419 49.94665019 111.57890129 49.95248318 C93.71925773 49.96187495 75.85964179 49.98180064 58 50 Z " fill="#111111" transform="translate(1793,416)"/>
<path d="M0 0 C1.01929596 0.00149048 2.03859192 0.00298096 3.08877563 0.0045166 C18.12548147 0.04408882 32.74644526 0.54046395 47.5625 3.3125 C48.37460937 3.45171875 49.18671875 3.5909375 50.0234375 3.734375 C75.2940422 8.09415984 103.3510025 17.53223154 122.5625 35.3125 C122.5625 35.9725 122.5625 36.6325 122.5625 37.3125 C123.12710937 37.54582031 123.69171875 37.77914062 124.2734375 38.01953125 C142.71214114 48.43456692 152.93557209 76.27872032 158.27734375 95.3671875 C161.89713364 108.924946 163.5625 122.28116742 163.5625 136.3125 C145.7425 136.3125 127.9225 136.3125 109.5625 136.3125 C108.24510852 133.67771705 108.05917537 131.03433535 107.66308594 128.14282227 C105.00832288 109.07696475 98.72580206 92.74674157 85.5625 78.3125 C84.9025 77.9825 84.2425 77.6525 83.5625 77.3125 C83.5625 76.6525 83.5625 75.9925 83.5625 75.3125 C82.99273438 75.04824219 82.42296875 74.78398437 81.8359375 74.51171875 C79.42267869 73.23874546 77.37403763 71.75557499 75.1875 70.125 C45.70114175 49.46740599 7.25271988 47.22036397 -27.2890625 53.09375 C-48.11264257 57.04874487 -67.44632338 65.98307203 -80.4375 83.3125 C-91.00641301 99.90774786 -93.43396149 121.02313656 -89.3125 140.125 C-87.85715527 144.89490977 -85.56511129 148.9955362 -82.83984375 153.15625 C-81.53913661 155.1562231 -80.46002746 157.1598106 -79.4375 159.3125 C-78.7775 159.3125 -78.1175 159.3125 -77.4375 159.3125 C-76.85871094 159.89257812 -76.27992188 160.47265625 -75.68359375 161.0703125 C-68.62211504 168.11951038 -59.17051844 171.69293572 -49.73120117 174.26416016 C-48.81738017 174.51871286 -47.90355917 174.77326557 -46.96204662 175.035532 C-37.26299259 177.70018494 -27.48272717 179.98382823 -17.67578125 182.2109375 C-15.74688612 182.65350792 -13.81811199 183.096606 -11.88945007 183.54019165 C-6.85847318 184.69597681 -1.82604762 185.84531648 3.20678711 186.99298096 C8.22263571 188.13769297 13.23729302 189.28759462 18.25195312 190.4375 C19.23414479 190.66269538 20.21633646 190.88789076 21.22829151 191.11991024 C23.19911255 191.57180581 25.16992412 192.02374263 27.14072609 192.47572136 C29.09226116 192.92325244 31.04381823 193.37068759 32.99539757 193.81802559 C45.19365167 196.61424388 57.39134553 199.41286917 69.57735634 202.26205826 C70.995133 202.59321397 72.41315126 202.92333749 73.83144188 203.252285 C98.555897 208.99124856 122.24257871 217.24570626 141.5625 234.3125 C142.07071289 234.7564209 142.57892578 235.2003418 143.10253906 235.65771484 C163.13082788 253.42514929 173.74929157 279.85700306 175.5625 306.3125 C177.1384066 341.6209862 169.71746994 372.41938589 146.875 399.9375 C119.22269516 429.90334428 75.70563027 442.17133005 36.5625 446.3125 C35.39589844 446.44398438 34.22929688 446.57546875 33.02734375 446.7109375 C-13.09101328 450.93988226 -69.89580793 446.32068945 -107.625 416.375 C-109.23224397 415.02448718 -110.83626106 413.67012731 -112.4375 412.3125 C-113.95150391 411.10787109 -113.95150391 411.10787109 -115.49609375 409.87890625 C-116.50800781 409.07324219 -117.51992188 408.26757812 -118.5625 407.4375 C-119.49320313 406.69757813 -120.42390625 405.95765625 -121.3828125 405.1953125 C-122.06085937 404.57398438 -122.73890625 403.95265625 -123.4375 403.3125 C-123.4375 402.6525 -123.4375 401.9925 -123.4375 401.3125 C-124.4275 400.9825 -125.4175 400.6525 -126.4375 400.3125 C-147.91850743 380.58266166 -158.4555318 351.08468827 -161.625 322.875 C-161.70903076 322.14893555 -161.79306152 321.42287109 -161.87963867 320.67480469 C-162.64123312 313.14284139 -162.4375 306.0048148 -162.4375 298.3125 C-144.2875 298.3125 -126.1375 298.3125 -107.4375 298.3125 C-106.7775 305.2425 -106.1175 312.1725 -105.4375 319.3125 C-101.19782527 341.00006689 -90.67655418 361.38638568 -72.33203125 374.5390625 C-69.08874353 376.58537558 -65.80346945 378.47545294 -62.4375 380.3125 C-61.33535156 380.92996094 -60.23320313 381.54742188 -59.09765625 382.18359375 C-28.81826131 398.3117938 8.32606463 398.93989321 41.5625 394.3125 C42.24393066 394.22129883 42.92536133 394.13009766 43.62744141 394.03613281 C66.34630769 390.85202812 90.62892895 382.50150172 105.8125 364.5625 C117.76830612 348.66973145 120.10031353 331.57551984 117.5625 312.3125 C115.46512972 298.61489665 110.38503943 287.53499955 99.5546875 278.48828125 C73.45294621 259.50829444 38.04314631 254.23433806 7.26239014 247.16320801 C-3.55947374 244.67495946 -14.37716534 242.16883546 -25.19105148 239.64614677 C-28.93189576 238.77410176 -32.67365765 237.90652495 -36.41802979 237.04974365 C-72.87607586 228.70621427 -110.86685572 218.9869706 -133.4375 186.3125 C-150.24217001 158.57649029 -151.93655645 125.74278102 -144.37109375 94.73046875 C-139.54009696 76.51865352 -130.63172444 59.64862414 -118.4375 45.3125 C-117.88449219 44.62542969 -117.33148437 43.93835938 -116.76171875 43.23046875 C-111.97908297 37.44336532 -106.37432864 32.87674709 -100.4375 28.3125 C-99.65632812 27.7040625 -98.87515625 27.095625 -98.0703125 26.46875 C-83.33026279 15.55019466 -65.5674238 8.86415592 -47.875 4.5625 C-47.06135986 4.36374268 -46.24771973 4.16498535 -45.40942383 3.96020508 C-30.2712697 0.47757875 -15.45649725 -0.0556726 0 0 Z " fill="#101010" transform="translate(850.4375,404.6875)"/>
<path d="M0 0 C-0.01571045 0.57105469 -0.0314209 1.14210938 -0.04760742 1.73046875 C-0.58859338 24.70296934 1.72339582 46.15177734 9 68 C9.21994629 68.67337402 9.43989258 69.34674805 9.66650391 70.04052734 C16.52935491 90.69247853 26.54588304 110.54447909 38 129 C38.53882813 129.87076172 39.07765625 130.74152344 39.6328125 131.63867188 C54.39808051 155.38783012 70.57774943 178.07953363 87.19433594 200.55322266 C88.94956869 202.93166272 90.69857348 205.31453593 92.4453125 207.69921875 C98.58645307 216.07565044 104.80416073 224.38316544 111.125 232.625 C117.41246904 240.83891249 123.48359842 249.1669651 129.375 257.66845703 C131.19364123 260.2778356 133.03367094 262.87142887 134.875 265.46484375 C143.50323352 277.66469288 151.5619731 290.04082428 159 303 C159.64461182 304.10988281 159.64461182 304.10988281 160.30224609 305.2421875 C189.9847465 356.47156248 208.96568057 416.83233441 195 476 C194.81808105 476.77923828 194.63616211 477.55847656 194.44873047 478.36132812 C187.33214847 507.64170659 171.09038683 533.195648 150.0625 554.375 C148.69399902 555.75884888 148.69399902 555.75884888 147.29785156 557.1706543 C145.99219238 558.45903198 145.99219238 558.45903198 144.66015625 559.7734375 C143.88293213 560.54091309 143.10570801 561.30838867 142.30493164 562.09912109 C139.94136339 564.04835766 137.89086062 565.03691236 135 566 C135.25394531 565.3915625 135.50789062 564.783125 135.76953125 564.15625 C140.5738196 551.92060926 142.45270765 539.08370765 143 526 C143.04125 525.14792969 143.0825 524.29585937 143.125 523.41796875 C143.4861396 508.72410127 141.2367249 494.0359972 137 480 C136.68216553 478.9179126 136.68216553 478.9179126 136.35791016 477.81396484 C124.53487451 438.45180395 99.28815293 404.12114034 72.42675781 373.6328125 C70.96233756 371.95689829 69.52142051 370.26324572 68.0859375 368.5625 C56.77201691 355.16144957 44.69044811 342.53308968 32.25158882 330.17642403 C30.25072462 328.18865448 28.25329249 326.19748714 26.25657654 324.20555115 C22.02808746 319.98831518 17.79559963 315.77510737 13.5625 311.5625 C8.62387466 306.64763082 3.68698675 301.73104016 -1.24571419 296.81022453 C-3.19945498 294.86289204 -5.15621295 292.91862831 -7.11314392 290.97450256 C-12.47194961 285.63770146 -17.7985799 280.3270522 -22.68830872 274.54884338 C-24.78447729 272.07369023 -27.02959994 269.73843197 -29.25 267.375 C-48.84225684 246.16337969 -65.43476993 221.0730877 -73 193 C-73.20737793 192.27683594 -73.41475586 191.55367187 -73.62841797 190.80859375 C-76.82752933 179.33731381 -77.36605775 167.96602359 -77.375 156.125 C-77.37699402 155.42929901 -77.37898804 154.73359802 -77.38104248 154.01681519 C-77.37667009 140.550049 -75.74894583 127.64491795 -72.25 114.625 C-71.98396973 113.63097168 -71.71793945 112.63694336 -71.44384766 111.61279297 C-65.1986373 88.80467976 -54.95988008 66.78001017 -42 47 C-41.57895996 46.34741211 -41.15791992 45.69482422 -40.72412109 45.02246094 C-34.58266758 35.55578816 -27.94807029 27.04520857 -20 19 C-19.23397461 18.22027832 -18.46794922 17.44055664 -17.67871094 16.63720703 C-13.4266882 12.31791058 -9.1592644 8.01388423 -4.8671875 3.734375 C-4.14644043 3.01475586 -3.42569336 2.29513672 -2.68310547 1.55371094 C-1 0 -1 0 0 0 Z " fill="#1889AC" transform="translate(195,605)"/>
<path d="M0 0 C17.49 0 34.98 0 53 0 C53.33 51.15 53.66 102.3 54 155 C56.64 151.7 59.28 148.4 62 145 C79.27403256 124.1320412 103.54817857 109.27839364 130.74560547 106.17871094 C162.07692574 103.69500654 194.70205569 109.07737907 219.6875 129.16015625 C240.24407926 146.92780936 249.2840877 171.54308647 252 198 C252.47958723 205.62583997 252.38187169 213.26611374 252.34057617 220.90307617 C252.33972772 223.13245126 252.34020929 225.36182718 252.34190369 227.59120178 C252.34275656 233.58169656 252.32524681 239.57200731 252.30418181 245.56245971 C252.2852956 251.84577332 252.28365523 258.12909219 252.28010559 264.41242981 C252.27187176 274.9386386 252.25319493 285.46479121 252.22631836 295.9909668 C252.19869081 306.82266919 252.17750008 317.65435337 252.16479492 328.48608398 C252.16361267 329.49118787 252.16361267 329.49118787 252.16240653 330.51659688 C252.15849081 333.87885481 252.15469983 337.24111288 252.15097082 340.60337102 C252.11970076 368.40230444 252.0647327 396.20112298 252 424 C234.84 424 217.68 424 200 424 C199.98018066 417.97621094 199.96036133 411.95242188 199.93994141 405.74609375 C199.87284285 385.77727664 199.79530276 365.80850996 199.71247292 345.8397522 C199.66253693 333.74034871 199.6160933 321.64095136 199.578125 309.54150391 C199.54498905 298.98490504 199.50504195 288.42835664 199.45720994 277.87181377 C199.4321576 272.29197639 199.41031598 266.71217156 199.39665604 261.1322937 C202.04914596 212.27991929 202.04914596 212.27991929 184.109375 168.828125 C171.02287164 155.93549576 153.36512558 154.56972381 135.99267578 154.63867188 C114.38527544 154.99264143 94.75011775 162.01790684 78.83203125 177.046875 C57.53245314 199.62360383 53.71703123 230.82658569 53.68115234 260.5234375 C53.67182812 262.31888264 53.66165586 264.11432353 53.65071106 265.90975952 C53.6236777 270.73096342 53.60834186 275.55213856 53.59528303 280.37339783 C53.5795343 285.4315822 53.55278226 290.48970881 53.5272522 295.54785156 C53.48067053 305.10252476 53.44382739 314.65720907 53.41057932 324.21193695 C53.37221131 335.09968214 53.32284015 345.98736901 53.27259517 356.87506485 C53.16958227 379.25000532 53.08167523 401.62497077 53 424 C35.51 424 18.02 424 0 424 C0 284.08 0 144.16 0 0 Z " fill="#101010" transform="translate(2829,416)"/>
<path d="M0 0 C17.16 0 34.32 0 52 0 C52.33 80.19 52.66 160.38 53 243 C66.86 229.14 80.72 215.28 95 201 C97.64 198.69 100.28 196.38 103 194 C104.65839604 192.40922951 106.29941574 190.79997072 107.91552734 189.16625977 C108.7893808 188.2858754 109.66323425 187.40549103 110.56356812 186.49842834 C111.47845001 185.57211105 112.39333191 184.64579376 113.3359375 183.69140625 C114.30583175 182.71455109 115.27610448 181.7380716 116.24673462 180.76194763 C120.33307933 176.65135364 124.41344326 172.53485808 128.48974609 168.41430664 C130.99753601 165.87981249 133.51011418 163.35014885 136.02574539 160.82343864 C136.9805583 159.86241178 137.93346871 158.89949087 138.88444138 157.93466377 C140.20537483 156.5946188 141.53294285 155.2611234 142.86083984 153.92797852 C143.61392426 153.16743668 144.36700867 152.40689484 145.14291382 151.62330627 C147 150 147 150 149 150 C149 149.34 149 148.68 149 148 C149.66 148 150.32 148 151 148 C151 147.34 151 146.68 151 146 C152.1228372 145.00691622 153.29301893 144.06718892 154.48046875 143.15234375 C158.09304427 140.1252519 160.27848961 137.11179624 162.67578125 133.06640625 C168.03635182 125.08608077 173.63446754 118.24284031 183 115 C204.65573091 111.03207314 228.17469404 113.52029928 250 115 C248.48123262 118.18941149 246.91059243 120.33246836 244.375 122.8125 C243.74335937 123.43769531 243.11171875 124.06289063 242.4609375 124.70703125 C241.15216801 125.92647202 239.83547679 127.13916753 238.46972656 128.29443359 C230.8723114 134.73107548 223.9991535 141.92973754 217 149 C202.23854486 163.91142638 202.23854486 163.91142638 196.19140625 169.03125 C190.20645214 174.40810717 184.6584032 180.2841094 179 186 C164.00791057 201.14440383 164.00791057 201.14440383 157.9765625 206.25048828 C153.27267758 210.41403069 148.92147122 214.97781319 144.5 219.4375 C143.47679861 220.4657298 142.45336267 221.49372626 141.4296875 222.52148438 C138.95042001 225.01164338 136.47432462 227.50492833 134 230 C135.31519205 233.56230739 136.8873659 236.58428707 138.984375 239.74609375 C139.5825 240.65423828 140.180625 241.56238281 140.796875 242.49804688 C141.44140625 243.46806641 142.0859375 244.43808594 142.75 245.4375 C144.12085698 247.51882998 145.49062337 249.60087862 146.859375 251.68359375 C147.90061523 253.26696533 147.90061523 253.26696533 148.96289062 254.88232422 C152.01951799 259.56031216 155.01201616 264.27798339 158 269 C164.66598328 279.51767145 171.46568166 289.94525252 178.28076172 300.36669922 C182.1111939 306.23364632 185.90985061 312.12117021 189.71142578 318.00683594 C190.99194785 319.98754495 192.27487502 321.96667404 193.55859375 323.9453125 C198.98835179 332.31788542 204.37807196 340.7151984 209.75 349.125 C216.28862843 359.35802343 222.89827844 369.5426462 229.54296875 379.70703125 C233.01771301 385.02263646 236.47349942 390.35027087 239.91455078 395.68774414 C242.4462754 399.61177469 244.99797919 403.52174686 247.56640625 407.421875 C248.46915283 408.7972644 248.46915283 408.7972644 249.39013672 410.20043945 C250.56903678 411.99569191 251.75153531 413.78858759 252.93798828 415.57885742 C253.73245361 416.79085815 253.73245361 416.79085815 254.54296875 418.02734375 C255.01758545 418.74656006 255.49220215 419.46577637 255.98120117 420.20678711 C257 422 257 422 257 424 C248.38552774 424.23219886 239.77237209 424.40962109 231.15553951 424.51812172 C227.15375327 424.57021191 223.1541145 424.64078906 219.15356445 424.75439453 C215.28894217 424.86344704 211.42637772 424.92291764 207.56033516 424.94877243 C206.08930619 424.96718277 204.61838412 425.00314084 203.14823723 425.05730057 C191.65898524 425.46353812 191.65898524 425.46353812 187.61102295 421.89247131 C185.79703438 419.33898679 184.36728378 416.81398691 183 414 C182.3817334 413.03860107 181.7634668 412.07720215 181.12646484 411.08666992 C180.65934082 410.30912354 180.1922168 409.53157715 179.7109375 408.73046875 C179.16880615 407.83312012 178.6266748 406.93577148 178.06811523 406.01123047 C177.50938721 405.07939941 176.95065918 404.14756836 176.375 403.1875 C175.14520206 401.15193832 173.91471828 399.11679087 172.68359375 397.08203125 C172.0685498 396.06447754 171.45350586 395.04692383 170.81982422 393.99853516 C168.0533411 389.44018453 165.24866908 384.90588776 162.4375 380.375 C161.90342529 379.51374512 161.36935059 378.65249023 160.8190918 377.76513672 C159.74490519 376.03351999 158.67044388 374.30207363 157.59570312 372.57080078 C154.95700869 368.31966057 152.32186007 364.06632716 149.6875 359.8125 C148.89243042 358.5289563 148.89243042 358.5289563 148.08129883 357.21948242 C144.42701025 351.31614978 140.78766786 345.40375787 137.15307617 339.48828125 C131.26514212 329.90541518 125.34987142 320.34143008 119.375 310.8125 C111.10955274 297.62761259 102.99999615 284.34759504 95 271 C91.33089002 271.568225 89.75521765 272.94379598 87.25 275.625 C84.68574548 278.28806065 82.11786675 280.84201078 79.3125 283.25 C75.62896338 286.41769618 72.06003982 289.69530237 68.5 293 C64.18796174 297.00026479 59.84315051 300.94845618 55.390625 304.79296875 C53.30477978 306.42849675 53.30477978 306.42849675 52.8613348 308.95028019 C52.85488225 309.81215663 52.8484297 310.67403307 52.84178162 311.56202698 C52.8319928 312.54785767 52.82220398 313.53368835 52.81211853 314.5493927 C52.80636307 315.63983383 52.8006076 316.73027496 52.79467773 317.85375977 C52.78477814 318.99507355 52.77487854 320.13638733 52.76467896 321.31228638 C52.73295372 325.10530484 52.70826311 328.89833586 52.68359375 332.69140625 C52.66303373 335.31314937 52.64203753 337.9348891 52.62062073 340.55662537 C52.57064422 346.76498548 52.52572386 352.97337159 52.48259836 359.18178266 C52.42843275 366.94088495 52.36755679 374.69993265 52.30664062 382.45898438 C52.19795817 396.30594773 52.09946674 410.15296057 52 424 C34.84 424 17.68 424 0 424 C0 284.08 0 144.16 0 0 Z " fill="#111111" transform="translate(1092,416)"/>
<path d="M0 0 C1.27230469 1.04800781 1.27230469 1.04800781 2.5703125 2.1171875 C20.57610129 17.59005187 32.78718082 40.15439625 35 64 C35 67.3 35 70.6 35 74 C18.17 74 1.34 74 -16 74 C-16.99 68.39 -17.98 62.78 -19 57 C-24.47843847 43.92645364 -31.04534301 36.04255901 -44 30 C-67.05270962 20.75499635 -96.90023627 18.85287486 -120.31542969 27.89404297 C-129.31074659 31.76493095 -138.20943907 36.17190916 -143.25 44.9375 C-143.72953125 45.75089844 -144.2090625 46.56429687 -144.703125 47.40234375 C-149.2611586 56.53213997 -149.32572618 67.22872768 -147.3828125 77.15234375 C-144.20837313 86.2683223 -137.09751314 90.70261388 -128.7762146 94.76443481 C-124.14867596 96.82393902 -119.39758062 98.32380765 -114.55078125 99.77734375 C-113.43963455 100.11458969 -112.32848785 100.45183563 -111.18367004 100.79930115 C-95.25935571 105.52839939 -79.0654091 109.25291762 -62.91223145 113.10510254 C-16.64150229 124.14486626 -16.64150229 124.14486626 1.125 132.9375 C1.99261963 133.35862061 2.86023926 133.77974121 3.75415039 134.21362305 C10.39750731 137.51877885 16.28177725 141.24540368 22 146 C22.65484375 146.50660156 23.3096875 147.01320313 23.984375 147.53515625 C25.37387189 148.62826963 26.69821991 149.80376964 28 151 C28 151.66 28 152.32 28 153 C28.66 153 29.32 153 30 153 C31.56835372 155.07398127 32.98548728 157.12220327 34.375 159.3125 C34.77984619 159.94969971 35.18469238 160.58689941 35.60180664 161.2434082 C43.27735204 173.65813316 45.39063128 186.82138416 45.3125 201.25 C45.30686035 202.34755615 45.3012207 203.4451123 45.29541016 204.57592773 C44.96871964 226.50785868 37.40582798 249.76009853 22 266 C21.34 266 20.68 266 20 266 C19.77828125 266.56203125 19.5565625 267.1240625 19.328125 267.703125 C13.87713213 277.13013619 1.33111578 283.07493771 -8 288 C-8.85207031 288.47179687 -9.70414063 288.94359375 -10.58203125 289.4296875 C-28.20009457 298.83767488 -49.89496489 303.08881794 -69.7578125 303.203125 C-70.57513351 303.21013931 -71.39245453 303.21715363 -72.23454285 303.22438049 C-74.8647517 303.24181932 -77.49473542 303.24823466 -80.125 303.25 C-81.02294281 303.25067474 -81.92088562 303.25134949 -82.84603882 303.25204468 C-117.8719223 303.21019307 -153.89785811 296.91653751 -181 273 C-181.89912109 272.24203125 -181.89912109 272.24203125 -182.81640625 271.46875 C-204.01292859 252.19024245 -209.06899496 222.0340705 -211 195 C-193.84 195 -176.68 195 -159 195 C-158.01 201.27 -157.02 207.54 -156 214 C-151.16772595 229.30220114 -142.70707667 240.12874882 -128.4375 247.75 C-103.45676458 259.88040988 -69.6477184 260.20725806 -43.55078125 251.90234375 C-34.41072857 248.60088454 -25.42794929 244.49927417 -19 237 C-18.50886719 236.43796875 -18.01773438 235.8759375 -17.51171875 235.296875 C-9.30804737 225.28147471 -7.88663672 214.55171622 -8.76806641 201.98925781 C-9.25922487 197.77666918 -10.64795532 194.48508946 -13 191 C-13.99 189.453125 -13.99 189.453125 -15 187.875 C-25.63892898 176.23967586 -44.46296173 172.31273843 -59.078125 168.28515625 C-60.33924606 167.93752228 -61.60036713 167.58988831 -62.89970398 167.23171997 C-72.17005373 164.69739894 -81.48195776 162.3688663 -90.83203125 160.1484375 C-91.48845045 159.99238729 -92.14486965 159.83633709 -92.82118034 159.67555809 C-98.84356758 158.2457336 -104.86876983 156.82802104 -110.89672852 155.421875 C-140.17482539 148.5826379 -140.17482539 148.5826379 -153 143 C-153.83861572 142.64115723 -154.67723145 142.28231445 -155.54125977 141.91259766 C-157.51620794 141.03212678 -159.4484712 140.10616111 -161.375 139.125 C-162.3640332 138.62419922 -162.3640332 138.62419922 -163.37304688 138.11328125 C-169.1765987 135.07792701 -174.16468865 131.4250954 -179 127 C-180.04027344 126.09701172 -180.04027344 126.09701172 -181.1015625 125.17578125 C-195.54869331 111.87214921 -200.13779073 93.92734995 -201 75 C-201.44907371 53.38391242 -194.84965717 31.7025828 -181 15 C-180.31164063 14.14921875 -179.62328125 13.2984375 -178.9140625 12.421875 C-173.34881443 5.87216066 -167.09142098 0.82397299 -160 -4 C-159.12214844 -4.60585938 -158.24429688 -5.21171875 -157.33984375 -5.8359375 C-143.94886399 -14.35221527 -127.59366339 -19.49522074 -112 -22 C-110.93265625 -22.20238281 -109.8653125 -22.40476562 -108.765625 -22.61328125 C-73.49191896 -28.47893146 -28.33738686 -23.81064775 0 0 Z " fill="#101010" transform="translate(2725,546)"/>
<path d="M0 0 C17.16 0 34.32 0 52 0 C52.01981934 6.23173096 52.03963867 12.46346191 52.06005859 18.8840332 C52.12707115 39.51146371 52.20461178 60.13884482 52.28752708 80.76621723 C52.3375256 93.2682048 52.38396939 105.77018623 52.421875 118.2722168 C52.45494498 129.17632297 52.49485766 140.08037963 52.54279006 150.98443097 C52.56790672 156.75134521 52.58973075 162.51822723 52.60334396 168.28518105 C52.61630026 173.72786259 52.63849658 179.1704328 52.66738319 184.61305237 C52.67635414 186.59656752 52.68212422 188.58010054 52.68421364 190.56363487 C52.69615442 200.18886536 52.9073803 209.72121276 53.88320923 219.30265808 C53.95888449 220.05569538 54.03455975 220.80873269 54.1125282 221.5845893 C55.83957372 236.78882244 61.3524587 251.27034122 73.44140625 261.21875 C89.83783534 272.63366857 109.8831746 273.63839278 129.09375 270.8203125 C144.75286881 267.53189755 157.61940754 260.18802744 169 249 C169.62777344 248.38511719 170.25554688 247.77023437 170.90234375 247.13671875 C187.99964444 229.03141394 195.12395625 200.31482898 195.15821838 176.0526123 C195.16315636 175.29440327 195.16809434 174.53619424 195.17318195 173.75500917 C195.18843071 171.23706543 195.19688298 168.71914693 195.20532227 166.20117188 C195.21491074 164.38720481 195.22492138 162.57323994 195.23532104 160.75927734 C195.26227117 155.85083077 195.28333407 150.94237468 195.30332303 146.03389549 C195.32524385 140.89827125 195.35260262 135.76267601 195.37937927 130.6270752 C195.42922393 120.90921609 195.47419317 111.19134081 195.51740164 101.47345018 C195.56684447 90.40695061 195.6217364 79.34048014 195.67708123 68.27400875 C195.79077493 45.5160317 195.89692202 22.75802778 196 0 C213.49 0 230.98 0 249 0 C249 101.97 249 203.94 249 309 C232.5 309 216 309 199 309 C198.67 294.48 198.34 279.96 198 265 C195.36 268.96 192.72 272.92 190 277 C172.35785151 300.01255458 149.95700784 312.84508469 121.45703125 317.58984375 C104.33037753 319.55201162 84.64644517 319.525913 68 315 C67.28279785 314.80664062 66.5655957 314.61328125 65.82666016 314.4140625 C42.13699062 307.8271044 23.15149368 294.96705053 10.87890625 273.31640625 C3.60583015 259.91898295 0.00339996 245.62109964 -0.31173706 230.36834717 C-0.33220069 229.52334671 -0.35266432 228.67834626 -0.37374806 227.80773973 C-0.43917581 225.01612259 -0.49725804 222.22441961 -0.55419922 219.43261719 C-0.57516151 218.46133047 -0.59612381 217.49004375 -0.61772132 216.48932409 C-1.06979452 195.33997155 -1.14859849 174.19480031 -1.1343255 153.04137897 C-1.13172238 147.94309254 -1.13415953 142.84480753 -1.13571167 137.746521 C-1.13750496 129.23937649 -1.13519704 120.73224081 -1.13037109 112.22509766 C-1.12487031 102.41546478 -1.12674404 92.6058525 -1.1321975 82.79622006 C-1.13673545 74.28827019 -1.13737772 65.78032651 -1.13475883 57.27237582 C-1.13320788 52.2257826 -1.13297095 47.17919909 -1.13629532 42.13260651 C-1.13918615 37.42073529 -1.13717613 32.70889094 -1.13140106 27.99702263 C-1.13008271 26.27490979 -1.13045183 24.55279468 -1.13266373 22.83068275 C-1.13541005 20.47549083 -1.13195253 18.12038429 -1.12698364 15.76519775 C-1.1264181 13.79347784 -1.1264181 13.79347784 -1.12584114 11.7819252 C-0.99463982 7.8389095 -0.48934158 3.91473262 0 0 Z " fill="#101010" transform="translate(2208,531)"/>
<path d="M0 0 C17.49 0 34.98 0 53 0 C53 139.92 53 279.84 53 424 C35.51 424 18.02 424 0 424 C0 284.08 0 144.16 0 0 Z " fill="#111111" transform="translate(1650,416)"/>
<path d="M0 0 C17.49 0 34.98 0 53 0 C53 139.92 53 279.84 53 424 C35.51 424 18.02 424 0 424 C0 284.08 0 144.16 0 0 Z " fill="#101010" transform="translate(1519,416)"/>
<path d="M0 0 C17.16 0 34.32 0 52 0 C53.12500649 10.1250584 53.12500649 10.1250584 53.12584114 14.73740959 C53.12844889 15.78804742 53.13105664 16.83868524 53.13374341 17.92116058 C53.13151268 19.04851029 53.12928196 20.17586 53.12698364 21.33737183 C53.12854363 22.55576 53.13010362 23.77414818 53.13171089 25.02945721 C53.1349959 28.38961856 53.13383188 31.74972355 53.13072467 35.1098814 C53.12845444 38.7417183 53.13195815 42.37355041 53.13470459 46.00538635 C53.13914311 53.10990174 53.13819458 60.21440653 53.13529195 67.31892233 C53.13303145 73.09099432 53.1327282 78.86306334 53.13381577 84.63513565 C53.133969 85.45733236 53.13412223 86.27952907 53.13428011 87.12664083 C53.13459984 88.79695883 53.13492405 90.46727683 53.1352527 92.13759483 C53.13810159 107.78506413 53.13482916 123.43252755 53.12945233 139.07999589 C53.12497982 152.51199237 53.12576505 165.94398023 53.13037109 179.37597656 C53.13571866 194.97764577 53.13783223 210.57930985 53.13475883 226.18097985 C53.13444028 227.84323955 53.13412591 229.50549924 53.13381577 231.16775894 C53.13358435 232.39455453 53.13358435 232.39455453 53.13334826 233.64613386 C53.13248403 239.41565986 53.13394388 245.18518261 53.13629532 250.9547081 C53.1390953 257.97899043 53.13835064 265.00326159 53.13301457 272.02754264 C53.13038103 275.61270485 53.12936674 279.1978484 53.13266373 282.78301048 C53.1361785 286.66352763 53.13199061 290.544014 53.12698364 294.42453003 C53.12921436 295.56526407 53.13144509 296.70599811 53.13374341 297.88129985 C53.12983178 299.43378687 53.12983178 299.43378687 53.12584114 301.01763725 C53.12567879 301.91383494 53.12551644 302.81003263 53.12534916 303.73338783 C53 306 53 306 52 309 C34.84 309 17.68 309 0 309 C0 207.03 0 105.06 0 0 Z " fill="#101010" transform="translate(1388,531)"/>
<path d="M0 0 C17.16 0 34.32 0 52 0 C52.62328471 8.1027012 53.15078299 15.95584711 53.1328125 24.04296875 C53.13376923 25.01865311 53.13472595 25.99433746 53.13571167 26.99958801 C53.13638466 29.03203395 53.13459283 31.06448216 53.13037109 33.09692383 C53.12494532 36.21896065 53.13037861 39.3408578 53.13671875 42.46289062 C53.13605906 44.44791698 53.13478018 46.43294326 53.1328125 48.41796875 C53.13483673 49.35118454 53.13686096 50.28440033 53.13894653 51.24589539 C53.13421829 52.53412956 53.13421829 52.53412956 53.12939453 53.84838867 C53.12859894 54.60415695 53.12780334 55.35992523 53.12698364 56.13859558 C53 58 53 58 52 60 C34.84 60 17.68 60 0 60 C0 40.2 0 20.4 0 0 Z " fill="#101010" transform="translate(1388,416)"/>
<path d="M0 0 C0.66 0.33 1.32 0.66 2 1 C1.01 1 0.02 1 -1 1 C-0.67 0.67 -0.34 0.34 0 0 Z " fill="#1887A9" transform="translate(420,989)"/>
</svg>
